<svg width="112" height="113" viewBox="0 0 112 113" fill="none" xmlns="http://www.w3.org/2000/svg">
<path d="M54.9176 0.0048942C50.3336 0.0261942 45.9566 0.417095 42.1076 1.09889C30.7576 3.10389 28.6976 7.29889 28.6976 15.0389V25.2589H55.5076V28.6649H28.6976H18.6376C10.8456 28.6649 4.0176 33.3489 1.8876 42.2549C-0.574404 52.4649 -0.683404 58.8449 1.8876 69.5049C3.7936 77.4429 8.3456 83.0949 16.1376 83.0949H25.3566V70.8449C25.3566 61.9949 33.0136 54.1849 42.1066 54.1849H68.8866C76.3416 54.1849 82.2966 48.0469 82.2966 40.5649V15.0349C82.2966 7.76889 76.1666 2.31489 68.8866 1.09489C64.2806 0.328194 59.5016 -0.0201055 54.9166 0.000894488L54.9176 0.0048942ZM40.4176 8.22389C43.1876 8.22389 45.4486 10.5229 45.4486 13.3489C45.4486 16.1649 43.1866 18.4429 40.4176 18.4429C37.6386 18.4429 35.3866 16.1659 35.3866 13.3489C35.3866 10.5229 37.6386 8.22389 40.4176 8.22389Z" fill="url(#paint0_linear_56_24)"/>
<path d="M85.6378 28.6567V40.5667C85.6378 49.7977 77.8118 57.5667 68.8878 57.5667H42.1078C34.7718 57.5667 28.6978 63.8447 28.6978 71.1867V96.7167C28.6978 103.983 35.0168 108.257 42.1078 110.337C50.5948 112.833 58.7378 113.284 68.8878 110.337C75.6378 108.383 82.2978 104.449 82.2978 96.7167V86.4967H55.5178V83.0907H82.2978H95.7078C103.5 83.0907 106.408 77.6557 109.118 69.5007C111.917 61.1017 111.798 53.0207 109.118 42.2507C107.192 34.4937 103.514 28.6607 95.7078 28.6607H85.6478L85.6378 28.6567ZM70.5778 93.3167C73.3568 93.3167 75.6087 95.5937 75.6087 98.4107C75.6087 101.237 73.3568 103.536 70.5778 103.536C67.8078 103.536 65.5468 101.237 65.5468 98.4107C65.5468 95.5947 67.8088 93.3167 70.5778 93.3167Z" fill="url(#paint1_linear_56_24)"/>
<defs>
<linearGradient id="paint0_linear_56_24" x1="-0.00177877" y1="0.00269452" x2="61.8457" y2="52.6861" gradientUnits="userSpaceOnUse">
<stop stop-color="#5A9FD4"/>
<stop offset="1" stop-color="#306998"/>
</linearGradient>
<linearGradient id="paint1_linear_56_24" x1="69.9453" y1="97.5849" x2="47.7224" y2="66.4921" gradientUnits="userSpaceOnUse">
<stop stop-color="#FFD43B"/>
<stop offset="1" stop-color="#FFE873"/>
</linearGradient>
</defs>
</svg>
