<svg width="500" height="500" viewBox="0 0 500 500" fill="none" xmlns="http://www.w3.org/2000/svg">
<path d="M149.23 486.051L118.31 468.199C115.091 466.299 113.297 461.531 113.302 455.382L113.174 319.76L144.329 337.748L144.204 473.808C144.209 479.795 146.137 484.077 149.23 486.051Z" fill="#D87E2A"/>
<path opacity="0.2" d="M149.23 486.051L118.31 468.199C115.091 466.299 113.297 461.531 113.302 455.382L113.174 319.76L144.329 337.748L144.204 473.808C144.209 479.795 146.137 484.077 149.23 486.051Z" fill="black"/>
<path d="M149.449 486.178L149.231 486.051C146.137 484.078 144.21 479.795 144.206 473.807L144.33 337.746L113.175 319.759L140.123 304.037L140.364 303.906L140.441 303.845L140.491 303.832L144.313 301.618L144.323 301.603L148.637 298.609C148.696 298.579 148.763 298.536 148.805 298.498C148.872 298.453 148.939 298.409 148.983 298.372C149.219 298.216 149.4 298.049 149.61 297.899L149.855 297.727C150.109 297.54 150.348 297.343 150.601 297.156C150.855 296.969 151.092 296.772 151.322 296.593C151.526 296.42 151.73 296.245 151.927 296.088L152.166 295.891L152.379 295.702C152.787 295.395 153.171 295.055 153.547 294.729C153.76 294.538 153.949 294.356 154.138 294.173L154.369 293.952C155.097 293.267 155.829 292.543 156.505 291.806L156.745 291.571C157.023 291.273 157.289 290.989 157.552 290.681C157.673 290.543 157.804 290.39 157.909 290.241C158.021 290.118 158.143 289.981 158.24 289.848L158.327 289.733L158.424 289.602L158.581 289.401C158.861 289.062 159.149 288.706 159.413 288.358C159.634 288.048 159.864 287.722 160.07 287.402L160.237 287.185L160.291 287.091C160.591 286.681 160.859 286.252 161.12 285.839C161.362 285.456 161.569 285.097 161.786 284.721L161.867 284.581C162.04 284.244 162.221 283.93 162.396 283.593C162.486 283.437 162.585 283.264 162.66 283.099C162.878 282.684 163.082 282.258 163.27 281.824L163.296 281.777C163.41 281.509 163.538 281.25 163.652 280.982C163.781 280.723 163.894 280.454 163.992 280.177C164.093 279.964 164.189 279.727 164.268 279.481C164.354 279.259 164.449 279.022 164.535 278.801C164.73 278.245 164.909 277.682 165.089 277.119L165.098 277.103C165.239 276.643 165.388 276.165 165.523 275.68C165.543 275.608 165.555 275.552 165.576 275.48C165.729 274.964 165.849 274.429 165.961 273.909L165.995 273.741C166.084 273.334 166.183 272.911 166.265 272.479L166.275 272.463C166.392 271.862 166.513 271.182 166.593 270.541L166.652 270.221C166.677 270.068 166.694 269.932 166.719 269.779C166.73 269.723 166.743 269.667 166.738 269.603C166.754 269.466 166.78 269.315 166.805 269.162C166.891 268.399 166.953 267.642 167.013 266.924L167.041 266.586C167.058 266.303 167.083 266.005 167.1 265.723L167.109 265.707C167.153 264.586 167.189 263.439 167.209 262.283L167.211 262.242L167.209 262.136C167.197 261.796 167.198 261.504 167.187 261.164L167.178 260.783L167.173 260.322C167.164 259.941 167.164 259.545 167.145 259.179C167.144 259.075 167.133 258.984 167.131 258.88C167.12 258.791 167.119 258.685 167.108 258.596L167.097 258.36L167.084 258.165C167.038 257.596 167.006 257.036 166.958 256.507L166.967 256.491L166.956 256.402C166.905 255.914 166.844 255.441 166.79 254.992C166.467 252.553 166.005 250.536 165.504 248.765C165.142 247.514 164.757 246.373 164.402 245.292C163.613 242.939 162.898 240.816 162.51 237.735C162.452 237.221 162.387 236.683 162.34 236.115C162.302 235.53 162.257 234.92 162.232 234.28L162.237 234.199L162.226 234.109C162.21 233.954 162.196 233.8 162.212 233.662C162.168 233.304 162.148 232.979 162.157 232.672C162.16 225.479 166.538 217.101 171.944 213.987C172.54 213.642 173.111 213.409 173.654 213.264C174.074 213.152 174.466 213.086 174.846 213.077C175.252 213.062 175.623 213.068 175.999 213.138C176.191 213.166 176.375 213.21 176.55 213.267C177.092 213.413 177.603 213.647 178.104 213.935L209.229 231.904L209.219 231.92C209.391 232.02 209.57 232.143 209.748 232.268C211.591 233.664 212.611 236.34 212.613 239.802C212.617 240.264 212.588 240.747 212.527 241.504L212.528 241.61L212.514 241.707C212.332 246.899 211.41 250.662 210.357 255.017C210.096 256.118 209.826 257.234 209.57 258.401C209.466 258.799 209.386 259.19 209.305 259.582C209.03 260.779 208.779 262.01 208.578 263.333C208.503 263.754 208.442 264.205 208.374 264.64L230.296 252.265L261.467 270.262L261.462 288.798L261.455 297.698L261.472 306.049C261.467 316.099 260.701 322.808 259.141 326.558C258.047 329.139 256.381 330.761 252.533 332.983C248.124 335.526 245.508 335.724 242.476 335.955C241.362 336.043 240.297 336.157 239.226 336.311C238.818 336.367 238.401 336.439 237.96 336.519C237.559 336.6 237.158 336.681 236.738 336.793C235.991 336.966 235.209 337.204 234.432 337.464L233.803 337.686C232.661 338.11 231.539 338.609 230.363 339.202C230.221 339.266 230.081 339.33 229.945 339.419L229.837 339.461L229.662 339.547C229.238 339.74 228.756 339.962 228.252 340.255C224.128 342.63 220.156 346.549 216.755 351.573C215.201 353.866 213.815 356.341 212.644 358.875C211.52 361.291 210.577 363.791 209.804 366.286C210.392 365.666 210.97 365.061 211.524 364.463C213.368 362.462 214.922 360.816 216.705 359.28C218.309 357.912 219.863 356.807 221.615 355.796C224.113 354.361 226.116 353.202 227.591 354.116L227.6 354.1L258.518 372.534L258.509 372.55C258.634 372.622 258.749 372.711 258.857 372.813C258.941 372.884 259.033 372.977 259.1 373.079C259.147 373.105 259.185 373.149 259.22 373.232C259.312 373.327 259.378 373.427 259.451 373.553C259.473 373.587 259.489 373.595 259.503 373.645C259.592 373.779 259.671 373.931 259.759 374.105C260.556 375.795 261.077 378.828 261.313 383.804C261.344 384.364 261.366 384.939 261.386 385.556C261.428 387.144 261.461 388.893 261.456 390.851L261.469 426.623L159.591 485.44C157.68 486.547 155.831 487.148 154.125 487.248C153.5 487.284 152.887 487.262 152.284 487.185C152.083 487.173 151.874 487.137 151.684 487.068C150.896 486.888 150.144 486.599 149.449 486.178Z" fill="#D87E2A"/>
<path opacity="0.1" d="M227.598 354.124L227.608 354.108L258.511 372.534L258.501 372.55C257.036 371.62 255.024 372.795 252.526 374.23C250.774 375.241 249.22 376.346 247.631 377.723C245.832 379.249 244.277 380.897 242.434 382.897C239.267 386.323 235.677 390.194 230.223 393.719C229.614 394.16 228.89 394.617 228.227 395.007C216.903 401.545 207.701 394.585 207.701 379.487C207.704 375.254 208.469 370.734 209.84 366.265C210.417 365.655 210.971 365.052 211.531 364.473C213.376 362.471 214.93 360.825 216.713 359.29C218.301 357.912 219.855 356.807 221.607 355.796C224.105 354.36 226.124 353.211 227.598 354.124Z" fill="black"/>
<path opacity="0.1" d="M208.352 264.642L230.304 252.255L261.485 270.258L261.455 270.266L234.641 285.746L234.59 285.792L234.531 285.807L226.452 290.018L226.371 290.071L226.282 290.095C226.099 290.191 225.91 290.258 225.709 290.344L225.419 290.454C224.946 290.659 224.497 290.828 224.076 290.989C223.815 291.09 223.565 291.173 223.316 291.255L223.115 291.341C222.685 291.472 222.266 291.633 221.848 291.745C221.55 291.825 221.27 291.915 220.982 291.976C220.534 292.096 220.11 292.178 219.684 292.26L219.545 292.282C219.347 292.319 219.149 292.355 218.963 292.374C218.44 292.451 217.889 292.486 217.381 292.494C217.242 292.515 217.145 292.51 217.047 292.504C216.44 292.507 215.828 292.43 215.239 292.316C215.151 292.291 215.036 292.274 214.93 292.24C214.429 292.103 213.989 291.948 213.588 291.769C213.444 291.711 213.332 291.645 213.218 291.58L213.162 291.547C212.784 291.329 212.398 291.081 212.034 290.795L211.97 290.733C211.886 290.659 211.784 290.575 211.7 290.502C211.301 290.145 210.945 289.712 210.6 289.261C210.555 289.21 210.5 289.129 210.455 289.077C209.698 287.985 209.079 286.569 208.605 284.859C208.58 284.77 208.556 284.679 208.533 284.59C208.336 283.796 208.188 283.004 208.043 282.164L207.981 281.749C207.842 280.811 207.734 279.818 207.669 278.796C207.583 277.46 207.555 276.285 207.547 275.12C207.547 271.187 207.882 267.725 208.352 264.642Z" fill="black"/>
<path opacity="0.1" d="M144.329 337.746L113.174 319.759L140.121 304.037L140.348 303.896L140.44 303.845L140.49 303.832L144.312 301.618L144.321 301.603L148.651 298.618C148.702 298.565 148.746 298.526 148.804 298.498C148.871 298.453 148.938 298.409 148.982 298.371C149.217 298.215 149.398 298.048 149.609 297.899L149.838 297.718C150.093 297.53 150.347 297.343 150.6 297.156C150.854 296.969 151.091 296.772 151.32 296.593C151.525 296.42 151.729 296.245 151.926 296.087L152.165 295.891L152.378 295.702C152.786 295.395 153.169 295.054 153.545 294.728C153.759 294.538 153.948 294.355 154.137 294.173L154.368 293.951C155.096 293.266 155.828 292.543 156.503 291.806L156.744 291.571C157.021 291.273 157.288 290.989 157.55 290.681C157.672 290.542 157.803 290.389 157.908 290.241C158.029 290.102 158.126 289.971 158.223 289.839L158.326 289.731L158.438 289.608L158.58 289.397C158.875 289.066 159.164 288.712 159.412 288.355C159.633 288.044 159.863 287.718 160.083 287.408L160.234 287.182L160.288 287.088C160.588 286.678 160.856 286.249 161.117 285.835C161.359 285.453 161.566 285.094 161.783 284.718L161.849 284.568C162.037 284.239 162.218 283.927 162.393 283.59C162.499 283.443 162.582 283.261 162.672 283.105C162.86 282.671 163.089 282.239 163.267 281.822L163.293 281.776C163.407 281.507 163.535 281.248 163.649 280.98C163.769 280.737 163.882 280.468 164.005 280.184C164.1 279.947 164.186 279.725 164.265 279.479C164.351 279.257 164.446 279.02 164.532 278.799C164.737 278.228 164.913 277.705 165.086 277.117L165.095 277.101C165.236 276.641 165.386 276.164 165.52 275.678C165.54 275.607 165.553 275.55 165.573 275.479C165.701 274.968 165.846 274.427 165.958 273.907L166.008 273.748C166.091 273.316 166.18 272.909 166.263 272.477L166.272 272.461C166.389 271.86 166.511 271.18 166.59 270.539L166.634 270.21C166.665 270.082 166.692 269.931 166.717 269.778C166.727 269.721 166.74 269.665 166.735 269.601C166.751 269.464 166.777 269.313 166.787 269.152C166.882 268.373 166.951 267.64 166.994 266.915L167.038 266.585C167.064 266.287 167.088 266.03 167.097 265.723L167.107 265.707C167.15 264.585 167.186 263.439 167.206 262.282L167.208 262.242L167.206 262.136C167.194 261.796 167.196 261.504 167.185 261.164L167.175 260.783L167.171 260.321C167.161 259.941 167.146 259.535 167.127 259.17C167.125 259.065 167.114 258.975 167.128 258.878C167.117 258.789 167.116 258.683 167.105 258.594L167.094 258.359L167.082 258.164C167.035 257.594 167.004 257.034 166.955 256.505L166.929 256.407L166.938 256.391C166.887 255.903 166.841 255.439 166.787 254.99C166.464 252.551 166.002 250.534 165.501 248.763C165.149 247.496 164.763 246.356 164.4 245.29C163.61 242.938 162.896 240.814 162.507 237.733C162.449 237.219 162.384 236.681 162.337 236.113C162.3 235.528 162.272 234.927 162.245 234.286L162.234 234.197L162.239 234.116C162.223 233.962 162.209 233.807 162.209 233.662C162.165 233.303 162.145 232.979 162.154 232.671C162.158 225.479 166.536 217.101 171.942 213.986C172.538 213.642 173.109 213.409 173.652 213.264C174.071 213.152 174.463 213.086 174.844 213.077C175.243 213.036 175.621 213.067 175.997 213.138C176.189 213.166 176.373 213.209 176.547 213.267C177.089 213.412 177.6 213.646 178.101 213.935L209.226 231.904C208.569 231.525 207.837 231.311 207.055 231.256C206.531 231.225 205.977 231.281 205.413 231.392C204.601 231.57 203.715 231.913 202.835 232.426C201.921 232.962 201.032 233.637 200.198 234.428C198.131 236.383 196.36 239.053 195.093 241.97C194.822 242.585 194.591 243.203 194.366 243.844C194.053 244.747 193.795 245.663 193.594 246.59C193.251 248.122 193.064 249.64 193.064 251.121C193.054 251.533 193.107 252.021 193.14 252.542L193.151 252.631L193.146 252.712C193.277 255.915 193.669 258.165 194.226 260.196C194.323 260.607 194.438 260.986 194.543 261.381C194.794 262.173 195.048 262.924 195.301 263.716C195.657 264.797 196.05 265.921 196.404 267.189C196.532 267.618 196.635 268.052 196.755 268.497C196.874 268.941 196.975 269.416 197.092 269.901C197.401 271.352 197.677 272.97 197.857 274.825L197.867 274.914L197.883 274.923C197.891 275.199 197.908 275.458 197.931 275.744C197.955 276.028 197.963 276.304 197.986 276.589L198.005 276.809L198.023 277.029C198.036 277.224 198.058 277.404 198.061 277.615C198.073 277.81 198.08 277.98 198.067 278.181C198.08 278.376 198.092 278.571 198.089 278.757L198.094 279.218V279.615C198.108 279.914 198.114 280.231 198.125 280.571L198.111 280.668L198.108 280.708C198.105 281.29 198.103 281.874 198.084 282.446C198.066 283.019 198.033 283.584 198.014 284.158C197.997 284.44 197.97 284.738 197.939 285.011L197.911 285.35C197.867 286.075 197.791 286.823 197.704 287.587C197.666 287.941 197.613 288.286 197.566 288.656L197.515 288.96L197.506 288.976C197.403 289.625 197.298 290.274 197.179 290.914C197.097 291.346 196.998 291.769 196.91 292.176L196.875 292.344C196.81 292.639 196.743 292.936 196.652 293.237C196.587 293.532 196.494 293.834 196.423 294.106C196.39 294.234 196.368 294.345 196.335 294.472C196.242 294.814 196.115 295.179 196.012 295.538L196.003 295.554C195.824 296.117 195.644 296.68 195.434 297.226C195.268 297.694 195.087 298.151 194.905 298.61C194.678 299.147 194.452 299.684 194.22 300.195C194.008 300.635 193.794 301.075 193.582 301.517L193.572 301.532C193.437 301.766 193.309 302.025 193.173 302.261C193.028 302.511 192.909 302.754 192.789 302.999L192.699 303.155C192.591 303.342 192.482 303.531 192.358 303.709L192.249 303.896C192.187 304.005 192.113 304.13 192.026 304.247C191.758 304.676 191.489 305.105 191.205 305.525L191.151 305.619L190.984 305.835C190.893 305.991 190.778 306.155 190.648 306.308C190.542 306.455 190.442 306.628 190.321 306.765C190.224 306.898 190.127 307.029 190.031 307.16C189.854 307.393 189.68 307.625 189.497 307.832L189.339 308.034L189.163 308.266C189.032 308.421 188.91 308.558 188.814 308.691C188.772 308.728 188.743 308.775 188.701 308.814C188.623 308.914 188.544 309.015 188.449 309.106C188.317 309.26 188.188 309.415 188.041 309.558C187.935 309.705 187.789 309.85 187.659 310.004L187.422 310.241C186.737 310.993 186.015 311.702 185.27 312.377L185.054 312.607C184.849 312.78 184.66 312.964 184.447 313.153C184.086 313.487 183.687 313.819 183.286 314.151L183.066 314.317L182.954 314.44L182.843 314.523C182.648 314.68 182.442 314.855 182.237 315.028C181.754 315.396 181.262 315.779 180.754 316.153L180.524 316.334C180.314 316.484 180.117 316.641 179.897 316.807C179.786 316.889 179.662 316.963 179.551 317.045L175.237 320.04L171.414 322.253L171.28 322.342L171.037 322.473L144.329 337.746Z" fill="black"/>
<mask id="mask0_47_15" style="mask-type:luminance" maskUnits="userSpaceOnUse" x="208" y="182" width="182" height="245">
<path d="M228.243 380.664C228.566 380.477 228.946 380.207 229.349 379.922L229.414 379.875L229.481 379.831C233.421 377.29 235.849 374.676 238.662 371.649C240.042 370.164 241.288 368.833 242.678 367.471L242.898 367.251C243.038 367.115 243.172 366.991 243.308 366.866L243.5 366.688C244.191 366.034 244.881 365.415 245.572 364.825L258.512 372.54L258.511 372.543C258.752 372.693 258.979 372.899 259.192 373.167C259.194 373.171 259.197 373.174 259.199 373.175C259.297 373.3 259.394 373.442 259.486 373.597C259.504 373.628 259.522 373.662 259.54 373.693C259.615 373.826 259.69 373.966 259.76 374.119C259.784 374.168 259.806 374.219 259.827 374.269C259.891 374.417 259.955 374.573 260.016 374.74C260.04 374.803 260.063 374.868 260.085 374.934C260.143 375.104 260.199 375.285 260.255 375.472C260.277 375.545 260.297 375.617 260.319 375.692C260.375 375.899 260.43 376.121 260.481 376.349C260.497 376.417 260.512 376.48 260.528 376.55C260.589 376.834 260.648 377.135 260.704 377.453C260.709 377.478 260.714 377.499 260.718 377.524C260.779 377.878 260.837 378.254 260.89 378.652C260.895 378.681 260.898 378.716 260.902 378.747C260.949 379.102 260.993 379.474 261.035 379.864C261.047 379.986 261.06 380.117 261.071 380.241C261.102 380.555 261.132 380.875 261.158 381.21C261.171 381.371 261.183 381.541 261.196 381.708C261.219 382.023 261.241 382.346 261.261 382.68C261.274 382.878 261.285 383.083 261.296 383.287C261.313 383.611 261.328 383.947 261.344 384.29C261.353 384.515 261.363 384.741 261.372 384.973C261.384 385.334 261.397 385.71 261.406 386.089C261.413 386.318 261.419 386.543 261.425 386.78C261.434 387.211 261.442 387.66 261.448 388.114C261.452 388.325 261.456 388.526 261.458 388.741C261.466 389.42 261.469 390.119 261.469 390.851L261.473 426.62L389.475 352.737L389.478 332.552C389.48 332.434 389.491 332.314 389.491 332.197V229.584L389.497 182.015L389.496 182.016L362.665 197.508C362.495 197.606 362.331 197.704 362.169 197.801L361.85 197.99L361.813 198.012L361.777 198.035L356.486 201.322L356.441 201.35L356.396 201.382C354.127 202.892 352.13 204.38 350.296 205.931L350.164 206.039C350.058 206.126 349.951 206.214 349.845 206.306C349.367 206.719 348.912 207.14 348.458 207.563L348.334 207.679C348.135 207.863 347.938 208.048 347.745 208.236C347.325 208.644 346.919 209.061 346.52 209.479C346.264 209.749 346.011 210.022 345.76 210.3C345.381 210.721 345.008 211.15 344.649 211.584C344.41 211.872 344.183 212.166 343.908 212.518C343.56 212.966 343.214 213.417 342.889 213.876C342.696 214.149 342.512 214.43 342.328 214.71L342.192 214.919L342.044 215.144C341.778 215.544 341.515 215.946 341.268 216.36C341.087 216.662 340.92 216.974 340.753 217.288L340.627 217.525C340.145 218.407 339.689 219.326 339.274 220.257L339.167 220.497C338.99 220.889 338.816 221.282 338.655 221.686C338.494 222.09 338.346 222.508 338.202 222.926L338.092 223.245C337.925 223.721 337.759 224.198 337.61 224.688C337.457 225.186 337.318 225.7 337.179 226.222C337.042 226.744 336.909 227.273 336.787 227.816C336.673 228.325 336.566 228.844 336.468 229.367C336.363 229.924 336.271 230.495 336.187 231.071L336.171 231.175C336.101 231.648 336.031 232.122 335.973 232.609C335.901 233.216 335.848 233.845 335.793 234.52L335.762 234.89C335.731 235.247 335.701 235.605 335.681 235.974C335.639 236.744 335.614 237.57 335.602 238.655L335.595 238.819C335.588 239.012 335.581 239.206 335.581 239.408C335.581 247.885 337.07 252.332 338.388 256.266C339.441 259.412 340.351 262.128 340.551 267.269L340.555 267.359L340.561 267.444C340.602 267.957 340.639 268.441 340.639 268.871C340.639 272.466 339.543 276.36 337.77 279.744C335.999 283.128 333.555 286.001 330.859 287.558C330.848 287.564 330.838 287.566 330.827 287.572C330.331 287.856 329.843 288.074 329.361 288.254C329.278 288.285 329.194 288.321 329.111 288.349C328.64 288.508 328.18 288.611 327.73 288.667C327.651 288.676 327.571 288.684 327.493 288.69C327.033 288.731 326.585 288.725 326.156 288.656C326.123 288.651 326.094 288.64 326.061 288.634C325.616 288.555 325.189 288.42 324.786 288.224C324.777 288.219 324.768 288.219 324.758 288.215L324.757 288.221L324.716 288.197C324.711 288.194 324.707 288.191 324.702 288.19C324.658 288.168 324.618 288.138 324.574 288.115C324.555 288.104 324.537 288.093 324.516 288.082L310.687 280.098C310.723 279.696 310.751 279.303 310.794 278.889C310.843 278.42 310.901 277.955 310.958 277.488C311.081 276.519 311.219 275.58 311.367 274.685C311.504 273.853 311.653 273.034 311.812 272.232C311.894 271.818 311.975 271.411 312.06 271.012C312.425 269.289 312.82 267.554 313.269 265.702C314.408 261 315.392 256.937 315.392 251.066C315.392 246.331 314.993 244.278 313.721 243.527L298.335 234.654L272.228 249.729L261.481 243.434V255.932L252.051 261.376L252.059 261.365L249.071 263.091L261.489 270.26L261.477 270.263L261.472 270.266L261.477 270.263V288.8L261.472 288.795V297.702V306.052C261.472 316.106 260.709 322.815 259.144 326.553C258.058 329.135 256.39 330.76 252.532 332.986C248.131 335.528 245.509 335.729 242.473 335.961C241.376 336.046 240.289 336.163 239.241 336.311C238.826 336.37 238.401 336.44 237.967 336.523C237.566 336.599 237.158 336.687 236.741 336.788C235.991 336.969 235.215 337.197 234.429 337.469L234.271 337.523C234.12 337.575 233.967 337.628 233.814 337.684C232.663 338.111 231.535 338.609 230.366 339.205C230.227 339.269 230.087 339.341 229.945 339.416L229.847 339.469L229.658 339.555C229.237 339.748 228.758 339.966 228.244 340.263C224.133 342.636 220.164 346.549 216.766 351.576C216.02 352.679 215.316 353.819 214.655 354.985C214.557 355.156 214.474 355.336 214.379 355.508C213.809 356.537 213.26 357.579 212.758 358.644C212.719 358.726 212.686 358.809 212.649 358.892C211.525 361.305 210.572 363.792 209.814 366.296C209.051 368.741 208.516 371.069 208.189 373.292L221.865 381.187C223.576 382.167 225.806 382.072 228.243 380.664Z" fill="white"/>
</mask>
<g mask="url(#mask0_47_15)">
<path d="M263.349 337.874L230.145 318.704C230.374 318.378 230.63 318.045 230.878 317.688L230.948 317.604C231.071 317.424 231.187 317.262 231.312 317.084C231.844 316.307 232.338 315.487 232.789 314.705L232.934 314.455C233.415 313.586 233.892 312.652 234.331 311.675C234.426 311.438 234.536 311.21 234.641 310.957L234.691 310.798C234.936 310.23 235.218 309.559 235.482 308.815C235.607 308.491 235.716 308.158 235.835 307.809L235.895 307.594C236.09 307.04 236.27 306.475 236.434 305.902C236.574 305.442 236.7 304.972 236.825 304.501C236.953 303.991 237.073 303.456 237.211 302.93C237.314 302.426 237.426 301.907 237.529 301.404C237.623 300.916 237.716 300.429 237.796 299.931L237.841 299.708C237.925 299.236 238.005 298.739 238.083 298.242C238.116 297.969 238.166 297.665 238.208 297.376L238.242 297.062C238.577 294.566 238.791 291.957 238.953 289.111L238.946 288.982L238.957 288.926L238.952 288.86L238.963 288.804L239.131 281.144L239.142 281.087L239.13 281.037L239.134 280.811L239.141 280.44L239.144 244.677L272.231 264.05L272.222 264.066L272.22 299.829L272.214 300.2L272.217 300.41L272.222 300.476L272.218 300.517L272.041 308.193L272.039 308.233L272.028 308.289L272.033 308.355L272.017 308.492C271.878 311.332 271.657 313.956 271.331 316.437L271.287 316.766C271.245 317.055 271.204 317.343 271.162 317.632C271.084 318.13 271.014 318.61 270.93 319.083L270.884 319.306C270.797 319.818 270.711 320.291 270.618 320.779C270.505 321.298 270.402 321.801 270.274 322.311C270.162 322.831 270.04 323.366 269.914 323.876C269.78 324.361 269.655 324.831 269.522 325.277C269.359 325.85 269.179 326.413 268.984 326.968L268.914 327.199C268.805 327.533 268.686 327.881 268.561 328.205C268.307 328.934 268.015 329.62 267.77 330.188L267.705 330.338C267.61 330.575 267.514 330.812 267.419 331.05C266.965 332.017 266.503 332.961 266.014 333.846L265.868 334.095C265.418 334.877 264.917 335.673 264.391 336.474C264.275 336.637 264.152 336.816 264.021 336.971L263.959 337.08C263.753 337.358 263.558 337.62 263.349 337.874Z" fill="#D87E2A"/>
<path d="M239.027 401.24L239.125 371.164C238.969 371.324 238.815 371.485 238.659 371.646C240.035 370.167 241.288 368.827 242.672 367.477L242.904 367.255C243.041 367.126 243.179 366.996 243.316 366.867L243.505 366.684C246.319 364.013 249.1 361.907 252.186 360.102L252.195 360.086L252.529 359.904L252.605 359.845L252.847 359.713L252.872 359.707C253.618 359.283 254.351 358.915 255.102 358.554C255.311 358.445 255.526 358.361 255.726 358.267L255.95 358.167C256.44 357.971 256.971 357.735 257.507 357.565C257.781 357.451 258.052 357.379 258.308 357.298L258.431 357.266C258.876 357.147 259.319 357.027 259.72 356.947C260.047 356.886 260.35 356.832 260.643 356.793C261.043 356.752 261.417 356.718 261.789 356.724C262.088 356.71 262.38 356.71 262.662 356.729C263.042 356.76 263.377 356.829 263.687 356.904L263.825 356.919C264.048 356.964 264.263 357.027 264.463 357.078C264.828 357.205 265.134 357.361 265.399 357.515C265.808 357.71 266.096 357.897 266.36 358.091C266.686 358.32 267.025 358.599 267.368 358.944C267.535 359.124 267.694 359.32 267.858 359.54L267.978 359.693L268.061 359.804C268.218 359.999 268.368 360.211 268.524 360.447C268.717 360.726 268.884 361.051 269.051 361.377C269.211 361.678 269.349 361.945 269.468 362.243C269.641 362.594 269.788 362.99 269.933 363.388C270.053 363.686 270.148 363.992 270.242 364.296C270.385 364.733 270.504 365.177 270.63 365.645C270.696 365.892 270.754 366.154 270.811 366.416L270.844 366.539C270.958 367.064 271.072 367.589 271.169 368.145C271.192 368.284 271.223 368.447 271.239 368.602L271.276 368.791C271.629 370.997 271.875 373.495 272.042 376.386L272.031 376.442L272.036 376.507L272.209 383.468L272.222 383.517L272.219 383.558L272.226 383.979C272.222 384.206 272.225 384.416 272.219 384.642L272.231 420.413L239.027 401.24Z" fill="#D87E2A"/>
<path d="M221.465 380.946L188.809 362.091C186.637 360.941 185.378 357.921 185.384 353.9C185.386 349.563 187.002 344.595 189.686 340.598C189.898 340.303 190.085 340.015 190.313 339.729C190.152 339.971 189.968 340.217 189.807 340.459L223.011 359.629C222.924 359.745 222.86 359.856 222.773 359.971C220.064 363.976 218.463 368.953 218.471 373.273C218.468 376.963 219.626 379.655 221.465 380.946Z" fill="#D87E2A"/>
<path d="M263.349 337.874L230.145 318.704C230.374 318.378 230.63 318.045 230.878 317.688L230.948 317.604C231.071 317.424 231.187 317.262 231.312 317.084C231.844 316.307 232.338 315.487 232.789 314.705L232.934 314.455C233.415 313.586 233.892 312.652 234.331 311.675C234.426 311.438 234.536 311.21 234.641 310.957L234.691 310.798C234.936 310.23 235.218 309.559 235.482 308.815C235.607 308.491 235.716 308.158 235.835 307.809L235.895 307.594C236.09 307.04 236.27 306.475 236.434 305.902C236.574 305.442 236.7 304.972 236.825 304.501C236.953 303.991 237.073 303.456 237.211 302.93C237.314 302.426 237.426 301.907 237.529 301.404C237.623 300.916 237.716 300.429 237.796 299.931L237.841 299.708C237.925 299.236 238.005 298.739 238.083 298.242C238.116 297.969 238.166 297.665 238.208 297.376L238.242 297.062C238.577 294.566 238.791 291.957 238.953 289.111L238.946 288.982L238.957 288.926L238.952 288.86L238.963 288.804L239.131 281.144L239.142 281.087L239.13 281.037L239.134 280.811L239.141 280.44L239.144 244.677L272.231 264.05L272.222 264.066L272.22 299.829L272.214 300.2L272.217 300.41L272.222 300.476L272.218 300.517L272.041 308.193L272.039 308.233L272.028 308.289L272.033 308.355L272.017 308.492C271.878 311.332 271.657 313.956 271.331 316.437L271.287 316.766C271.245 317.055 271.204 317.343 271.162 317.632C271.084 318.13 271.014 318.61 270.93 319.083L270.884 319.306C270.797 319.818 270.711 320.291 270.618 320.779C270.505 321.298 270.402 321.801 270.274 322.311C270.162 322.831 270.04 323.366 269.914 323.876C269.78 324.361 269.655 324.831 269.522 325.277C269.359 325.85 269.179 326.413 268.984 326.968L268.914 327.199C268.805 327.533 268.686 327.881 268.561 328.205C268.307 328.934 268.015 329.62 267.77 330.188L267.705 330.338C267.61 330.575 267.514 330.812 267.419 331.05C266.965 332.017 266.503 332.961 266.014 333.846L265.868 334.095C265.418 334.877 264.917 335.673 264.391 336.474C264.275 336.637 264.152 336.816 264.021 336.971L263.959 337.08C263.753 337.358 263.558 337.62 263.349 337.874Z" fill="#263238"/>
<path d="M239.027 401.24L239.125 371.164C238.969 371.324 238.815 371.485 238.659 371.646C240.035 370.167 241.288 368.827 242.672 367.477L242.904 367.255C243.041 367.126 243.179 366.996 243.316 366.867L243.505 366.684C246.319 364.013 249.1 361.907 252.186 360.102L252.195 360.086L252.529 359.904L252.605 359.845L252.847 359.713L252.872 359.707C253.618 359.283 254.351 358.915 255.102 358.554C255.311 358.445 255.526 358.361 255.726 358.267L255.95 358.167C256.44 357.971 256.971 357.735 257.507 357.565C257.781 357.451 258.052 357.379 258.308 357.298L258.431 357.266C258.876 357.147 259.319 357.027 259.72 356.947C260.047 356.886 260.35 356.832 260.643 356.793C261.043 356.752 261.417 356.718 261.789 356.724C262.088 356.71 262.38 356.71 262.662 356.729C263.042 356.76 263.377 356.829 263.687 356.904L263.825 356.919C264.048 356.964 264.263 357.027 264.463 357.078C264.828 357.205 265.134 357.361 265.399 357.515C265.808 357.71 266.096 357.897 266.36 358.091C266.686 358.32 267.025 358.599 267.368 358.944C267.535 359.124 267.694 359.32 267.858 359.54L267.978 359.693L268.061 359.804C268.218 359.999 268.368 360.211 268.524 360.447C268.717 360.726 268.884 361.051 269.051 361.377C269.211 361.678 269.349 361.945 269.468 362.243C269.641 362.594 269.788 362.99 269.933 363.388C270.053 363.686 270.148 363.992 270.242 364.296C270.385 364.733 270.504 365.177 270.63 365.645C270.696 365.892 270.754 366.154 270.811 366.416L270.844 366.539C270.958 367.064 271.072 367.589 271.169 368.145C271.192 368.284 271.223 368.447 271.239 368.602L271.276 368.791C271.629 370.997 271.875 373.495 272.042 376.386L272.031 376.442L272.036 376.507L272.209 383.468L272.222 383.517L272.219 383.558L272.226 383.979C272.222 384.206 272.225 384.416 272.219 384.642L272.231 420.413L239.027 401.24Z" fill="#263238"/>
<path d="M221.465 380.946L188.809 362.091C186.637 360.941 185.378 357.921 185.384 353.9C185.386 349.563 187.002 344.595 189.686 340.598C189.898 340.303 190.085 340.015 190.313 339.729C190.152 339.971 189.968 340.217 189.807 340.459L223.011 359.629C222.924 359.745 222.86 359.856 222.773 359.971C220.064 363.976 218.463 368.953 218.471 373.273C218.468 376.963 219.626 379.655 221.465 380.946Z" fill="#263238"/>
<path d="M221.693 381.057L221.684 381.073L221.465 380.946C219.626 379.655 218.468 376.963 218.471 373.275C218.463 368.953 220.064 363.976 222.773 359.973C222.86 359.857 222.924 359.746 223.011 359.631L189.807 340.461C189.968 340.219 190.152 339.972 190.313 339.731C190.734 339.181 191.161 338.657 191.612 338.166C191.837 337.921 192.063 337.674 192.294 337.454C192.528 337.194 192.784 336.966 193.032 336.754C193.715 336.147 194.425 335.64 195.138 335.237L195.148 335.222C195.408 335.059 195.667 334.938 196.007 334.78C196.115 334.738 196.232 334.68 196.372 334.616L196.446 334.596L196.528 334.56C198.19 333.705 199.596 333.182 200.886 332.864C201.059 332.817 201.247 332.78 201.42 332.735C202.855 332.416 204.172 332.301 205.571 332.19C209.099 331.933 213.074 331.621 219.443 327.957C219.796 327.744 220.173 327.524 220.535 327.294C220.854 327.104 221.158 326.903 221.47 326.687C221.696 326.547 221.941 326.375 222.178 326.221C222.187 326.205 222.22 326.183 222.23 326.168C222.28 326.154 222.297 326.123 222.322 326.116C222.701 325.856 223.091 325.58 223.473 325.279C223.846 324.993 224.219 324.709 224.576 324.414C224.653 324.353 224.704 324.3 224.773 324.257C224.84 324.211 224.891 324.158 224.943 324.105L225.071 323.991C225.233 323.856 225.386 323.735 225.533 323.59C225.685 323.47 225.848 323.335 225.985 323.205C226.275 322.955 226.55 322.696 226.832 322.422C226.954 322.283 227.101 322.138 227.229 322.026C227.289 321.957 227.341 321.902 227.392 321.849C227.633 321.612 227.859 321.367 228.083 321.122C228.36 320.823 228.637 320.525 228.907 320.2L229.02 320.077C229.158 319.907 229.308 319.723 229.472 319.546C229.675 319.267 229.918 318.991 230.13 318.696L263.35 337.876C263.559 337.621 263.753 337.358 263.957 337.078L264.02 336.969C264.151 336.815 264.274 336.637 264.389 336.473C264.915 335.671 265.416 334.875 265.867 334.094L266.012 333.844C266.502 332.959 266.964 332.016 267.418 331.048C267.513 330.811 267.608 330.574 267.703 330.337L267.769 330.187C268.014 329.619 268.305 328.933 268.56 328.204C268.685 327.879 268.803 327.53 268.912 327.198L268.983 326.967C269.178 326.411 269.357 325.848 269.521 325.275C269.653 324.831 269.778 324.361 269.912 323.874C270.04 323.364 270.162 322.829 270.273 322.309C270.401 321.799 270.504 321.295 270.616 320.777C270.71 320.289 270.796 319.816 270.883 319.305L270.928 319.081C271.014 318.609 271.083 318.128 271.161 317.63C271.203 317.342 271.243 317.053 271.285 316.765L271.329 316.435C271.657 313.955 271.878 311.33 272.016 308.491L272.031 308.353L272.027 308.288L272.037 308.232L272.039 308.191L272.217 300.515L272.22 300.474L272.215 300.409L272.212 300.198L272.218 299.827L272.22 264.064L272.229 264.049L239.142 244.675L252.711 236.85L259.718 232.804L265.979 229.183C266.826 228.691 267.645 228.247 268.416 227.816C269.043 227.49 269.628 227.161 270.212 226.872C272.86 225.502 275.025 224.604 276.743 224.157C276.99 224.092 277.203 224.048 277.425 223.987C278.261 223.803 278.991 223.766 279.578 223.833C279.988 223.881 280.204 224.195 280.516 224.374L313.667 243.493C314.246 243.827 314.648 244.393 314.915 245.34C314.988 245.612 315.058 245.924 315.119 246.25C315.172 246.593 315.214 246.952 315.255 247.35C315.283 247.554 315.286 247.765 315.306 247.983C315.33 248.414 315.35 248.883 315.367 249.395C315.386 249.905 315.4 250.458 315.389 251.055C315.389 252.536 315.325 253.874 315.207 255.163C315.188 255.486 315.152 255.8 315.118 256.112C315.083 256.425 315.057 256.723 315.005 257.028C314.971 257.341 314.929 257.63 314.877 257.934C314.835 258.223 314.785 258.527 314.743 258.816C314.636 259.399 314.536 259.969 314.428 260.552C314.314 261.112 314.191 261.686 314.066 262.262C314.047 262.293 314.046 262.334 314.043 262.374C316.709 256.24 318.3 249.546 318.294 243.309C318.3 242.394 318.266 241.479 318.201 240.689C317.914 233.6 316.561 229.587 315.374 226.045C314.227 222.65 313.228 219.719 313.227 213.837C313.227 206.142 313.239 201.895 329.582 192.479L356.277 177.195L389.481 196.365L389.483 332.207C389.485 343.511 382.584 356.69 374.101 361.594L272.223 420.41L272.211 384.639C272.215 384.413 272.212 384.203 272.218 383.976L272.211 383.555L272.214 383.515L272.201 383.465L272.028 376.505L272.023 376.439L272.034 376.383C271.867 373.493 271.621 370.994 271.268 368.788L271.231 368.599C271.215 368.445 271.186 368.281 271.161 368.142C271.064 367.586 270.95 367.061 270.836 366.536L270.803 366.413C270.746 366.151 270.689 365.889 270.622 365.642C270.498 365.174 270.377 364.73 270.234 364.293C270.139 363.987 270.044 363.683 269.925 363.385C269.778 362.987 269.633 362.591 269.46 362.24C269.34 361.942 269.203 361.675 269.043 361.374C268.876 361.048 268.71 360.723 268.516 360.444C268.36 360.208 268.212 359.996 268.053 359.801L267.97 359.69L267.85 359.537C267.684 359.317 267.527 359.121 267.36 358.941C267.017 358.597 266.677 358.317 266.352 358.088C266.088 357.895 265.8 357.707 265.391 357.512C265.124 357.358 264.818 357.203 264.455 357.075C264.255 357.022 264.041 356.962 263.817 356.916L263.679 356.901C263.369 356.826 263.034 356.757 262.654 356.726C262.372 356.709 262.082 356.707 261.781 356.721C261.409 356.715 261.035 356.749 260.636 356.79C260.342 356.829 260.04 356.884 259.712 356.944C259.311 357.025 258.866 357.144 258.423 357.263L258.3 357.295C258.044 357.377 257.773 357.45 257.5 357.562C256.963 357.732 256.431 357.968 255.942 358.164L255.718 358.264C255.518 358.358 255.303 358.442 255.094 358.551C254.345 358.91 253.61 359.28 252.864 359.704L252.839 359.711L252.597 359.842L252.521 359.901L252.187 360.083L252.178 360.099C249.092 361.904 246.311 364.011 243.497 366.682L243.308 366.864C243.171 366.994 243.033 367.123 242.896 367.253L242.664 367.474C241.28 368.824 240.027 370.164 238.651 371.643C235.839 374.67 233.408 377.291 229.477 379.839L229.41 379.884L229.343 379.929C228.929 380.212 228.566 380.482 228.23 380.664C227.175 381.265 226.164 381.641 225.228 381.747C224.885 381.8 224.536 381.826 224.205 381.823C223.874 381.82 223.545 381.775 223.248 381.709C222.69 381.569 222.169 381.352 221.693 381.057Z" fill="#37474F"/>
<path d="M272.23 264.05L239.143 244.677L252.712 236.851L259.718 232.805L265.98 229.184C266.827 228.693 267.646 228.248 268.417 227.817C269.044 227.491 269.629 227.162 270.212 226.874C272.86 225.504 275.026 224.605 276.743 224.159C276.99 224.093 277.204 224.05 277.425 223.989C278.261 223.805 278.992 223.767 279.578 223.834C279.989 223.883 280.204 224.196 280.516 224.376L313.58 243.465C313.47 243.401 313.336 243.345 313.208 243.313C313.059 243.248 312.89 243.213 312.689 243.201L312.673 243.192C312.232 243.125 311.721 243.143 311.125 243.237C310.717 243.293 310.292 243.38 309.838 243.516C307.281 244.189 303.726 245.867 299.065 248.557L292.804 252.178L285.788 256.24L272.23 264.05Z" fill="black"/>
<path d="M315.04 301.077C311.991 297.93 310.319 292.703 310.328 286.355C310.32 285.493 310.355 284.606 310.443 283.623C310.447 283.574 310.457 283.556 310.461 283.506C310.521 282.003 310.612 280.491 310.787 278.878C310.835 278.402 310.891 277.954 310.958 277.489C311.066 276.517 311.211 275.567 311.372 274.678C311.5 273.845 311.646 273.023 311.802 272.228C311.896 271.804 311.979 271.398 312.052 271.012C312.42 269.283 312.818 267.546 313.261 265.685C313.556 264.52 313.829 263.392 314.072 262.271L314.083 262.253C316.729 256.141 318.312 249.515 318.312 243.313C318.307 242.404 318.255 241.491 318.204 240.705C317.917 233.604 316.553 229.591 315.377 226.037C314.23 222.652 313.252 219.717 313.242 213.838C313.244 206.149 313.244 201.913 329.59 192.466L356.284 177.194L389.488 196.364L362.676 211.844C346.33 221.291 346.33 225.527 346.328 233.216C346.326 239.115 347.316 242.031 348.462 245.415C349.639 248.967 351.002 252.982 351.289 260.082C351.341 260.867 351.392 261.781 351.378 262.68C351.392 277.766 342.187 295.369 330.86 301.888C324.727 305.434 318.954 305.127 315.04 301.077Z" fill="black"/>
<path d="M223.011 359.63L189.807 340.46C189.968 340.218 190.152 339.971 190.313 339.729C190.734 339.18 191.161 338.656 191.612 338.165C191.837 337.92 192.063 337.673 192.294 337.453C192.528 337.193 192.784 336.965 193.032 336.753C193.715 336.146 194.425 335.639 195.138 335.236L195.148 335.22C195.408 335.058 195.667 334.937 196.007 334.779C196.14 334.731 196.248 334.688 196.38 334.64L196.447 334.596L196.53 334.561C198.192 333.706 199.597 333.183 200.888 332.865C201.061 332.818 201.248 332.78 201.421 332.735C202.857 332.417 204.173 332.301 205.573 332.191C209.101 331.933 213.076 331.621 219.445 327.958C219.797 327.744 220.175 327.524 220.537 327.295C220.855 327.104 221.159 326.903 221.471 326.688C221.707 326.532 221.943 326.376 222.164 326.212C222.189 326.206 222.222 326.184 222.231 326.167C222.281 326.153 222.298 326.121 222.323 326.115C222.702 325.855 223.092 325.578 223.475 325.277C223.848 324.992 224.22 324.708 224.593 324.422C224.654 324.354 224.706 324.299 224.773 324.255C224.84 324.21 224.891 324.157 224.943 324.104L225.086 324C225.249 323.864 225.386 323.734 225.531 323.589C225.684 323.469 225.846 323.333 225.983 323.204C226.274 322.954 226.548 322.695 226.831 322.421C226.952 322.282 227.099 322.137 227.227 322.024C227.288 321.956 227.339 321.901 227.406 321.857C227.631 321.612 227.856 321.366 228.082 321.121C228.358 320.821 228.636 320.523 228.906 320.199L229.018 320.076C229.157 319.906 229.307 319.721 229.471 319.545C229.673 319.266 229.917 318.99 230.129 318.695L263.364 337.884C263.328 337.946 263.286 337.984 263.233 338.038C263.013 338.349 262.776 338.65 262.539 338.951C262.383 339.112 262.244 339.282 262.104 339.45L261.982 339.589C261.486 340.159 260.985 340.703 260.476 341.223C260.364 341.346 260.253 341.427 260.15 341.535C260.08 341.619 259.986 341.711 259.916 341.795C259.642 342.054 259.342 342.319 259.068 342.577C258.768 342.842 258.478 343.092 258.155 343.363L258.027 343.477C257.908 343.575 257.779 343.689 257.645 343.778C256.921 344.382 256.175 344.951 255.406 345.488C255.381 345.494 255.32 345.563 255.237 345.599C254.307 346.271 253.399 346.832 252.529 347.329C252.126 347.555 251.735 347.768 251.366 347.972C250.973 348.183 250.599 348.362 250.24 348.551C246.987 350.177 244.397 350.871 242.135 351.213C241.653 351.289 241.164 351.34 240.707 351.411C240.471 351.422 240.228 351.447 239.983 351.473C239.545 351.512 239.105 351.55 238.665 351.589L238.649 351.579C236.732 351.723 234.983 351.86 232.82 352.573C232.251 352.765 231.638 352.996 230.973 353.28L230.964 353.295C230.539 353.489 230.082 353.704 229.606 353.951L229.531 353.971L229.464 354.016C229.332 354.065 229.215 354.122 229.082 354.171C228.75 354.313 228.483 354.45 228.222 354.612C227.492 355.046 226.773 355.569 226.065 356.182C225.826 356.378 225.595 356.598 225.378 356.828C225.147 357.049 224.905 357.285 224.696 357.539C224.412 357.814 224.142 358.137 223.888 358.469C223.715 358.661 223.548 358.878 223.397 359.102C223.259 359.273 223.136 359.452 223.011 359.63Z" fill="black"/>
</g>
<mask id="mask1_47_15" style="mask-type:luminance" maskUnits="userSpaceOnUse" x="228" y="12" width="162" height="291">
<path d="M261.478 255.937L261.483 220.163L261.478 220.085L261.473 220.007L261.827 209.044L261.826 208.917L261.832 208.819C261.857 208.557 261.873 208.314 261.887 208.069L261.918 207.708C261.988 207.019 262.049 206.346 262.127 205.686C262.147 205.345 262.186 205.015 262.246 204.696L262.274 204.384C262.341 203.742 262.439 203.093 262.515 202.48C262.579 202.064 262.643 201.647 262.715 201.26C262.835 200.572 262.943 199.904 263.071 199.247L263.124 199.026C263.179 198.754 263.235 198.484 263.289 198.215C263.48 197.316 263.709 196.441 263.938 195.564C263.942 195.515 263.988 195.391 264.015 195.255C264.278 194.273 264.614 193.256 264.968 192.25C265.007 192.095 265.054 191.971 265.11 191.827C265.414 190.994 265.767 190.164 266.11 189.354C266.179 189.192 266.258 189.011 266.357 188.841L266.404 188.716C266.762 187.964 267.12 187.214 267.527 186.465L267.833 185.936C268.316 185.056 268.805 184.252 269.349 183.483L269.371 183.446C270.596 181.631 271.964 180.001 273.463 178.497L273.504 178.47L273.618 178.359C274.262 177.723 274.997 177.063 275.768 176.425L275.933 176.269C277.599 174.911 279.314 173.732 281.168 172.66C283.559 171.268 285.608 170.384 287.426 169.769C288.643 169.363 289.755 169.097 290.774 168.903C292.326 168.614 293.723 168.513 295.038 168.415C297.84 168.192 300.266 168.004 304.092 166.053L304.162 166.018L304.232 165.984C304.764 165.761 305.128 165.569 305.462 165.383C308.076 163.867 310.532 161.1 312.367 157.571C312.832 156.679 313.247 155.785 313.595 154.877C314.668 152.143 315.239 149.321 315.228 146.719C315.228 146.24 315.205 145.798 315.183 145.356C315.161 145.218 315.149 145.11 315.118 144.99C315.097 144.676 315.066 144.38 315.005 144.093C314.985 143.954 314.941 143.854 314.94 143.728C314.868 143.459 314.807 143.172 314.743 142.934C314.71 142.815 314.668 142.714 314.645 142.625C314.543 142.364 314.461 142.114 314.358 141.854C314.323 141.784 314.288 141.713 314.253 141.642C314.152 141.381 314.01 141.147 313.885 140.926C313.851 140.855 313.823 140.815 313.777 140.763C313.635 140.529 313.481 140.316 313.309 140.089C313.272 140.067 313.264 140.038 313.236 139.997C313.035 139.78 312.84 139.592 312.646 139.404L312.59 139.372C312.376 139.173 312.124 139.002 311.877 138.86L311.888 138.841L297.706 130.653C295.208 132.841 293.147 135.056 291.264 137.095C288.21 140.375 285.585 143.221 281.166 145.762C278.713 147.171 276.707 148.332 275.251 147.491C274.343 146.967 261.547 139.574 261.547 139.574C261.458 136.498 261.445 133.064 261.473 129.475L261.469 99.5709L228.264 80.4007L346.52 12L389.558 36.8477L389.481 196.372L362.668 211.852C346.322 221.299 346.322 225.535 346.32 233.224C346.329 239.104 347.308 242.039 348.454 245.423C349.65 248.987 350.994 252.99 351.281 260.09C351.342 260.857 351.384 261.79 351.389 262.699C351.398 270.848 348.702 279.755 344.438 287.227L317.31 302.904C316.489 302.405 315.753 301.802 315.032 301.085C312.002 297.949 310.329 292.722 310.32 286.363C310.332 285.512 310.376 284.606 310.446 283.612C310.457 283.593 310.449 283.564 310.453 283.514C310.513 282.011 310.604 280.499 310.779 278.886C310.846 278.421 310.894 277.944 310.95 277.498C311.069 276.507 311.203 275.575 311.364 274.686C311.492 273.853 311.64 273.029 311.794 272.237C311.888 271.812 311.971 271.407 312.044 271.02C312.412 269.291 312.81 267.554 313.273 265.704C314.397 261.008 315.384 256.939 315.394 251.069C315.384 246.323 314.985 244.276 313.703 243.526C313.621 243.479 298.331 234.651 298.331 234.651L272.221 249.731L261.478 255.937Z" fill="white"/>
</mask>
<g mask="url(#mask1_47_15)">
<path d="M324.472 288.062L291.19 268.846C291.034 268.756 290.884 268.69 290.736 268.584C288.88 267.178 288.018 264.262 288.015 260.799C288.004 260.312 288.017 259.82 288.076 259.103L288.09 259.006L288.089 258.9C288.287 253.717 289.193 249.944 290.246 245.59C290.785 243.357 291.34 240.987 291.835 238.396L299.035 234.232L299.311 234.079L299.486 233.993L299.553 233.948L305.229 230.907L305.287 230.877L305.337 230.865L305.486 230.785C307.537 229.799 309.329 229.042 311.011 228.512L311.226 228.428C311.482 228.346 311.713 228.272 311.96 228.205C312.264 228.109 312.56 228.03 312.863 227.975L313.027 227.944C313.372 227.852 313.734 227.768 314.085 227.701C314.403 227.655 314.721 227.609 315.03 227.579C315.389 227.535 315.763 227.501 316.119 227.499C316.395 227.491 316.67 227.484 316.937 227.492C317.285 227.504 317.637 227.541 318.054 227.615L318.191 227.632C318.36 227.666 318.552 227.694 318.72 227.729C319.118 227.833 319.523 227.963 319.988 228.169C320.138 228.234 320.241 228.273 320.36 228.32C321.435 228.879 322.372 229.712 323.156 230.81C323.216 230.887 323.266 230.979 323.334 231.08C323.652 231.576 323.951 232.103 324.199 232.685C324.257 232.802 324.315 232.919 324.357 233.027L324.399 233.135C324.632 233.707 324.838 234.327 325.04 234.985L325.173 235.478C325.349 236.185 325.521 236.971 325.639 237.812L325.707 238.165C325.998 240.188 326.15 242.382 326.139 244.858C326.139 253.346 324.644 259.51 323.33 264.966C322.276 269.32 321.369 273.093 321.173 278.276L321.174 278.382L321.16 278.479C321.101 279.195 321.079 279.704 321.084 280.165C321.077 283.645 322.098 286.319 323.94 287.715C324.123 287.838 324.301 287.962 324.472 288.062Z" fill="#D87E2A"/>
<path d="M272.225 249.721L239.138 230.348L239.142 218.13L239.152 205.978L239.158 194.554C239.15 187.814 239.475 182.662 240.158 178.844C241.317 172.465 243.06 170.532 248.089 167.637C252.498 165.094 255.114 164.896 258.155 164.65C259.333 164.559 260.441 164.447 261.559 164.28C261.862 164.225 262.155 164.186 262.458 164.132C262.974 164.033 263.483 163.91 264.032 163.79C264.673 163.618 265.349 163.425 266.076 163.177C266.357 163.088 266.646 162.985 266.945 162.865C268.078 162.456 269.176 161.963 270.278 161.39C270.328 161.378 270.385 161.348 270.427 161.311C271.142 161.014 271.774 160.712 272.378 160.351C278.514 156.803 284.288 149.836 288.201 141.251C288.462 140.693 288.68 140.131 288.916 139.579C288.648 139.863 288.365 140.136 288.081 140.41C289.148 139.357 290.17 138.239 291.25 137.089C294.433 133.67 298.023 129.801 303.452 126.283C304.061 125.841 304.769 125.375 305.471 124.988C316.779 118.441 325.997 125.411 325.991 140.484C325.989 146.843 324.323 153.994 321.287 160.623C317.365 169.223 311.598 176.175 305.454 179.738C304.858 180.083 304.217 180.4 303.504 180.698C303.469 180.72 303.412 180.749 303.362 180.762C302.235 181.342 301.146 181.818 300.02 182.252L299.152 182.564C298.425 182.812 297.75 183.005 297.102 183.152C296.559 183.297 296.06 183.405 295.544 183.503C295.241 183.558 294.938 183.612 294.645 183.651C293.526 183.818 292.411 183.946 291.231 184.037C288.2 184.268 285.566 184.458 281.174 187.009C276.146 189.903 274.387 191.828 273.244 198.216C272.562 202.035 272.22 207.176 272.219 213.932L272.228 225.365V237.502L272.212 237.492L272.225 249.721Z" fill="#D87E2A"/>
<path d="M275.253 147.494L241.996 128.272C240.052 127.088 239.151 122.147 239.15 109.759L239.019 74.1907L272.223 93.3609L272.235 129.133C272.229 141.641 273.271 146.373 275.261 147.48L275.253 147.494Z" fill="#D87E2A"/>
<path opacity="0.2" d="M324.472 288.062L291.19 268.846C291.034 268.756 290.884 268.69 290.736 268.584C288.88 267.178 288.018 264.262 288.015 260.799C288.004 260.312 288.017 259.82 288.076 259.103L288.09 259.006L288.089 258.9C288.287 253.717 289.193 249.944 290.246 245.59C290.785 243.357 291.34 240.987 291.835 238.396L299.035 234.232L299.311 234.079L299.486 233.993L299.553 233.948L305.229 230.907L305.287 230.877L305.337 230.865L305.486 230.785C307.537 229.799 309.329 229.042 311.011 228.512L311.226 228.428C311.482 228.346 311.713 228.272 311.96 228.205C312.264 228.109 312.56 228.03 312.863 227.975L313.027 227.944C313.372 227.852 313.734 227.768 314.085 227.701C314.403 227.655 314.721 227.609 315.03 227.579C315.389 227.535 315.763 227.501 316.119 227.499C316.395 227.491 316.67 227.484 316.937 227.492C317.285 227.504 317.637 227.541 318.054 227.615L318.191 227.632C318.36 227.666 318.552 227.694 318.72 227.729C319.118 227.833 319.523 227.963 319.988 228.169C320.138 228.234 320.241 228.273 320.36 228.32C321.435 228.879 322.372 229.712 323.156 230.81C323.216 230.887 323.266 230.979 323.334 231.08C323.652 231.576 323.951 232.103 324.199 232.685C324.257 232.802 324.315 232.919 324.357 233.027L324.399 233.135C324.632 233.707 324.838 234.327 325.04 234.985L325.173 235.478C325.349 236.185 325.521 236.971 325.639 237.812L325.707 238.165C325.998 240.188 326.15 242.382 326.139 244.858C326.139 253.346 324.644 259.51 323.33 264.966C322.276 269.32 321.369 273.093 321.173 278.276L321.174 278.382L321.16 278.479C321.101 279.195 321.079 279.704 321.084 280.165C321.077 283.645 322.098 286.319 323.94 287.715C324.123 287.838 324.301 287.962 324.472 288.062Z" fill="black"/>
<path opacity="0.2" d="M272.225 249.721L239.138 230.348L239.142 218.13L239.152 205.978L239.158 194.554C239.15 187.814 239.475 182.662 240.158 178.844C241.317 172.465 243.06 170.532 248.089 167.637C252.498 165.094 255.114 164.896 258.155 164.65C259.333 164.559 260.441 164.447 261.559 164.28C261.862 164.225 262.155 164.186 262.458 164.132C262.974 164.033 263.483 163.91 264.032 163.79C264.673 163.618 265.349 163.425 266.076 163.177C266.357 163.088 266.646 162.985 266.945 162.865C268.078 162.456 269.176 161.963 270.278 161.39C270.328 161.378 270.385 161.348 270.427 161.311C271.142 161.014 271.774 160.712 272.378 160.351C278.514 156.803 284.288 149.836 288.201 141.251C288.462 140.693 288.68 140.131 288.916 139.579C288.648 139.863 288.365 140.136 288.081 140.41C289.148 139.357 290.17 138.239 291.25 137.089C294.433 133.67 298.023 129.801 303.452 126.283C304.061 125.841 304.769 125.375 305.471 124.988C316.779 118.441 325.997 125.411 325.991 140.484C325.989 146.843 324.323 153.994 321.287 160.623C317.365 169.223 311.598 176.175 305.454 179.738C304.858 180.083 304.217 180.4 303.504 180.698C303.469 180.72 303.412 180.749 303.362 180.762C302.235 181.342 301.146 181.818 300.02 182.252L299.152 182.564C298.425 182.812 297.75 183.005 297.102 183.152C296.559 183.297 296.06 183.405 295.544 183.503C295.241 183.558 294.938 183.612 294.645 183.651C293.526 183.818 292.411 183.946 291.231 184.037C288.2 184.268 285.566 184.458 281.174 187.009C276.146 189.903 274.387 191.828 273.244 198.216C272.562 202.035 272.22 207.176 272.219 213.932L272.228 225.365V237.502L272.212 237.492L272.225 249.721Z" fill="black"/>
<path opacity="0.2" d="M275.253 147.494L241.996 128.272C240.052 127.088 239.151 122.147 239.15 109.759L239.019 74.1907L272.223 93.3609L272.235 129.133C272.229 141.641 273.271 146.373 275.261 147.48L275.253 147.494Z" fill="black"/>
<path d="M324.755 288.224L324.505 288.079C324.489 288.069 324.489 288.069 324.474 288.06C324.302 287.96 324.123 287.837 323.945 287.712C322.102 286.316 321.082 283.64 321.088 280.162C321.084 279.701 321.105 279.192 321.165 278.476L321.179 278.379L321.177 278.273C321.375 273.09 322.28 269.317 323.335 264.963C324.65 259.507 326.145 253.343 326.143 244.855C326.154 242.379 326.003 240.187 325.711 238.162L325.644 237.809C325.524 236.968 325.354 236.182 325.178 235.475L325.045 234.982C324.842 234.322 324.636 233.703 324.404 233.132L324.362 233.024C324.319 232.916 324.262 232.799 324.204 232.682C323.956 232.102 323.656 231.573 323.338 231.077C323.271 230.976 323.219 230.883 323.16 230.807C322.377 229.709 321.439 228.876 320.364 228.317C320.246 228.269 320.143 228.231 319.993 228.166C319.528 227.96 319.124 227.83 318.725 227.726C318.556 227.691 318.364 227.663 318.196 227.629L318.058 227.612C317.642 227.538 317.288 227.501 316.941 227.489C316.674 227.481 316.4 227.488 316.124 227.496C315.768 227.499 315.394 227.534 315.035 227.576C314.726 227.606 314.407 227.651 314.089 227.698C313.737 227.766 313.376 227.849 313.031 227.941L312.868 227.972C312.565 228.027 312.268 228.106 311.964 228.201C311.718 228.267 311.487 228.343 311.231 228.425L311.016 228.509C309.334 229.039 307.539 229.798 305.491 230.782L305.341 230.862L305.291 230.874L305.233 230.904L299.557 233.945L299.49 233.99L299.316 234.076L299.039 234.229L291.839 238.393L272.226 249.717L272.215 237.491L272.231 237.5V225.363L272.221 213.93C272.223 207.175 272.563 202.032 273.246 198.214C274.39 191.827 276.148 189.902 281.177 187.008C285.57 184.455 288.202 184.266 291.234 184.035C292.413 183.945 293.529 183.817 294.648 183.65C294.941 183.611 295.244 183.556 295.546 183.502C296.063 183.403 296.562 183.296 297.105 183.151C297.752 183.004 298.428 182.809 299.155 182.563L300.022 182.25C301.149 181.817 302.238 181.339 303.364 180.761C303.414 180.748 303.472 180.718 303.506 180.697C304.219 180.4 304.862 180.082 305.457 179.737C311.601 176.174 317.367 169.221 321.29 160.621C324.326 153.991 325.992 146.842 325.993 140.482C326 125.409 316.782 118.44 305.474 124.986C304.772 125.373 304.063 125.84 303.455 126.281C298.025 129.798 294.435 133.669 291.253 137.087C290.171 138.236 289.149 139.356 288.084 140.409C286.485 141.988 284.803 143.456 282.689 144.843C282.453 144.999 282.225 145.14 281.983 145.271C281.723 145.433 281.453 145.611 281.177 145.764C280.247 146.291 279.392 146.798 278.601 147.154C278.328 147.266 278.078 147.374 277.838 147.464C277.588 147.57 277.342 147.637 277.114 147.672C276.883 147.747 276.663 147.765 276.452 147.77C276.031 147.778 275.624 147.687 275.264 147.48C273.274 146.374 272.232 141.642 272.238 129.133L272.226 93.3612L239.022 74.1911L341.032 15.1812C341.4 14.9768 341.744 14.7787 342.11 14.6148C342.461 14.4417 342.802 14.2841 343.14 14.1671C343.14 14.1671 343.14 14.1671 343.149 14.1515C343.513 14.0282 343.842 13.9268 344.173 13.8238C344.502 13.7224 344.839 13.6459 345.157 13.5991C345.583 13.5118 346.022 13.4728 346.427 13.4572C348.22 13.387 349.851 13.8488 351.269 14.7506L384.003 33.6493L384.01 33.6742C384.997 34.2031 385.858 34.9505 386.618 35.91C386.858 36.2158 387.082 36.5528 387.288 36.8805C387.428 37.1067 387.568 37.3345 387.69 37.5919C387.943 38.0927 388.172 38.5998 388.389 39.163C388.478 39.4439 388.581 39.7325 388.661 40.0289C389.202 41.8013 389.491 43.8655 389.489 46.1792L389.491 182.021L362.661 197.5C362.493 197.611 362.334 197.707 362.175 197.803L361.856 197.993L361.806 198.005L361.774 198.027L356.494 201.319L356.436 201.347L356.394 201.385C354.127 202.89 352.121 204.38 350.287 205.93L350.159 206.044C350.05 206.126 349.955 206.217 349.844 206.299C349.375 206.716 348.903 207.133 348.449 207.559L348.337 207.682C348.133 207.855 347.935 208.055 347.746 208.237C347.325 208.641 346.92 209.053 346.53 209.474C346.271 209.741 346.003 210.025 345.761 210.301C345.371 210.723 345.008 211.138 344.649 211.578C344.412 211.879 344.185 212.164 343.906 212.504C343.555 212.969 343.212 213.417 342.886 213.876C342.692 214.139 342.505 214.428 342.327 214.7L342.201 214.918L342.05 215.144C341.783 215.533 341.508 215.937 341.265 216.36C341.093 216.658 340.912 216.97 340.756 217.275L340.636 217.519C340.146 218.403 339.678 219.322 339.266 220.252L339.171 220.489C338.985 220.883 338.815 221.285 338.655 221.672L338.645 221.688C338.491 222.1 338.346 222.496 338.207 222.916L338.082 223.24C337.917 223.708 337.757 224.2 337.608 224.675C337.455 225.192 337.313 225.693 337.175 226.218C337.038 226.744 336.902 227.27 336.781 227.805C336.668 228.325 336.556 228.844 336.469 229.356C336.355 229.916 336.271 230.493 336.188 231.071L336.174 231.167C336.09 231.64 336.019 232.121 335.966 232.611C335.89 233.213 335.845 233.834 335.787 234.509L335.756 234.889C335.718 235.243 335.696 235.605 335.675 235.968C335.628 236.734 335.612 237.558 335.587 238.649L335.593 238.819C335.59 239.004 335.578 239.206 335.575 239.391C335.575 247.879 337.072 252.33 338.389 256.26C339.43 259.405 340.343 262.122 340.544 267.264L340.555 267.353L340.55 267.434C340.592 267.938 340.636 268.442 340.642 268.863C340.639 276.056 336.246 284.426 330.855 287.548C329.732 288.193 328.633 288.58 327.616 288.681C327.371 288.708 327.153 288.726 326.927 288.72C326.886 288.719 326.845 288.715 326.806 288.712C326.661 288.712 326.515 288.711 326.373 288.67C326.243 288.678 326.115 288.647 325.987 288.616C325.891 288.602 325.78 288.578 325.677 288.541C325.549 288.509 325.422 288.477 325.302 288.43C325.206 288.416 325.118 288.386 325.025 288.332C324.936 288.308 324.833 288.269 324.755 288.224Z" fill="#D87E2A"/>
<path opacity="0.3" d="M272.224 93.3612L239.02 74.1911L341.031 15.1812C341.399 14.9768 341.742 14.7787 342.109 14.6148C342.46 14.4417 342.8 14.2841 343.139 14.1671C343.139 14.1671 343.139 14.1671 343.148 14.1515C343.512 14.0282 343.841 13.9268 344.171 13.8238C344.501 13.7224 344.838 13.6459 345.156 13.5991C345.582 13.5118 346.02 13.4728 346.426 13.4572C348.219 13.387 349.849 13.8488 351.267 14.7506L383.659 33.4511C383.368 33.3045 383.075 33.1984 382.772 33.1063C382.701 33.086 382.644 33.0751 382.566 33.0299C382.279 32.9487 381.994 32.8661 381.705 32.8239C381.608 32.8099 381.513 32.7958 381.407 32.7974C381.223 32.7537 381.022 32.7412 380.821 32.7303C380.805 32.721 380.78 32.7272 380.755 32.735C380.579 32.7163 380.392 32.7132 380.206 32.71C380.165 32.7069 380.109 32.696 380.061 32.7085C379.778 32.6913 379.51 32.7241 379.24 32.7568C379.036 32.7849 378.831 32.813 378.629 32.8411C378.221 32.8973 377.811 32.994 377.382 33.1219C377.16 33.1812 376.953 33.2499 376.747 33.3185C376.358 33.4496 375.943 33.6259 375.528 33.8037C375.071 34.019 374.594 34.2656 374.101 34.5433L272.224 93.3612Z" fill="white"/>
</g>
<mask id="mask2_47_15" style="mask-type:luminance" maskUnits="userSpaceOnUse" x="111" y="80" width="205" height="244">
<path d="M144.204 323.644L111 304.474L111.126 168.401C111.129 163.285 112.557 157.756 114.919 152.791L114.9 152.78C117.732 146.826 121.886 141.685 126.507 139.008L228.268 80.3977L261.472 99.5679L261.477 129.472L261.55 139.571L275.253 147.48C276.723 148.33 278.711 147.182 281.171 145.758C285.589 143.214 288.215 140.37 291.269 137.091C293.152 135.052 295.2 132.856 297.711 130.649L311.893 138.837L311.882 138.855C311.996 138.921 312.089 138.975 312.192 139.06C312.241 139.063 312.28 139.085 312.306 139.125C312.439 139.202 312.561 139.297 312.651 139.4C313.144 139.81 313.554 140.325 313.89 140.921C313.998 141.085 314.105 141.247 314.172 141.437C314.253 141.559 314.303 141.69 314.363 141.849C314.612 142.422 314.818 143.069 314.96 143.782C314.984 143.871 314.998 143.981 315.01 144.088C315.083 144.484 315.137 144.918 315.188 145.352C315.21 145.793 315.233 146.235 315.233 146.714C315.236 147.145 315.229 147.594 315.183 148.021C315.146 148.479 315.108 148.937 315.052 149.384C314.996 149.83 314.91 150.285 314.824 150.739C314.756 151.078 314.686 151.416 314.587 151.763C314.533 152.033 314.469 152.275 314.386 152.504C313.921 154.226 313.241 155.927 312.37 157.567C310.535 161.096 308.08 163.864 305.465 165.379C305.131 165.564 304.767 165.758 304.235 165.979L304.165 166.014L304.095 166.048C300.271 168 297.843 168.187 295.041 168.41C294.05 168.468 293.036 168.563 291.911 168.721C291.556 168.767 291.172 168.824 290.776 168.897C288.58 169.293 286.039 170.07 282.898 171.71C282.616 171.849 282.333 171.989 282.059 172.159C281.765 172.318 281.472 172.476 281.168 172.654C279.313 173.726 277.6 174.905 275.933 176.263L275.768 176.419C274.996 177.057 274.262 177.717 273.618 178.353L273.504 178.464L273.464 178.491C271.964 179.995 270.594 181.625 269.371 183.44L269.349 183.477C268.805 184.246 268.316 185.048 267.833 185.93L267.527 186.459C267.12 187.207 266.763 187.958 266.404 188.71L266.357 188.835C266.259 189.005 266.179 189.186 266.11 189.348C265.769 190.159 265.415 190.989 265.11 191.821C265.053 191.964 265.006 192.089 264.968 192.244C264.614 193.25 264.279 194.266 264.015 195.249C263.987 195.384 263.94 195.508 263.939 195.558C263.709 196.434 263.481 197.311 263.29 198.208C263.235 198.478 263.179 198.75 263.124 199.02L263.071 199.241C262.943 199.898 262.836 200.567 262.715 201.254C262.644 201.641 262.58 202.057 262.516 202.474C262.439 203.086 262.342 203.735 262.274 204.377L262.246 204.689C262.188 205.009 262.147 205.339 262.127 205.68C262.048 206.34 261.988 207.013 261.918 207.702L261.887 208.063C261.873 208.306 261.857 208.549 261.832 208.813L261.826 208.911L261.828 209.038L261.473 220.001L261.478 220.079L261.483 220.157L261.478 255.931L252.064 261.362L249.075 263.091L243.199 266.455L234.635 271.419C228.667 274.856 224.551 276.615 221.996 276.803C221.554 276.825 221.172 276.833 220.815 276.752C220.524 276.686 220.276 276.593 220.05 276.462L220.028 276.499L220.01 276.488L207.799 269.338L207.781 269.327C207.784 269.279 207.787 269.23 207.801 269.162C207.935 267.575 208.124 266.069 208.347 264.635C208.489 263.734 208.639 262.863 208.806 262.052C209.272 259.498 209.84 257.203 210.372 255.015C211.427 250.658 212.337 246.896 212.511 241.702L212.518 241.604L212.535 241.487C212.578 240.755 212.608 240.268 212.616 239.819C212.61 236.337 211.588 233.653 209.743 232.261C209.659 232.188 209.566 232.133 209.47 232.079L209.224 231.937L209.235 231.918L195.583 224.036C191.974 227.927 188.86 232.887 186.571 238.246C186.266 238.951 185.977 239.668 185.701 240.365C185.432 241.092 185.164 241.819 184.925 242.538C184.889 242.644 184.854 242.749 184.818 242.855C184.568 243.593 184.348 244.323 184.128 245.053C183.927 245.794 183.726 246.536 183.556 247.269C183.418 247.77 183.318 248.291 183.219 248.813C183.1 249.325 183.011 249.828 182.941 250.342C182.752 251.368 182.612 252.397 182.54 253.439C182.467 254.003 182.413 254.577 182.388 255.142C182.345 255.873 182.312 256.585 182.309 257.288C182.309 257.767 182.321 258.228 182.343 258.669C182.365 259.111 182.399 259.534 182.424 259.927C182.443 260.593 182.484 261.222 182.535 261.832C182.647 263.384 182.799 264.782 183.025 266.047C183.109 266.6 183.194 267.154 183.3 267.668C183.858 270.411 184.562 272.557 185.244 274.565C186.05 276.922 186.796 279.167 187.158 282.426L187.189 282.721L187.202 282.829L187.203 282.957C187.216 283.065 187.23 283.174 187.242 283.281C187.33 284.441 187.378 285.578 187.375 286.762C187.373 294.451 187.373 298.687 171.027 308.134L144.204 323.644Z" fill="white"/>
</mask>
<g mask="url(#mask2_47_15)">
<path d="M220.008 276.484L186.915 257.086L186.924 257.07C185.636 256.306 185.22 254.168 185.224 249.541C185.224 245.099 185.792 241.694 186.573 238.246C185.578 240.549 184.731 242.918 184.053 245.32C187.233 233.851 194.451 222.941 202.832 218.104C208.315 214.929 213.466 214.818 217.345 217.745C221.239 220.682 223.369 226.311 223.358 233.625C223.364 234.338 223.322 235.023 223.277 235.642L223.272 235.869L223.264 235.989C223.255 236.149 223.252 236.337 223.243 236.497C223.188 238.072 223.063 239.626 222.892 241.257C222.868 241.515 222.835 241.788 222.796 242.036L222.767 242.268C222.628 243.376 222.481 244.461 222.303 245.526C222.185 246.166 222.065 246.806 221.954 247.431C221.834 248.071 221.7 248.703 221.573 249.317C221.225 250.931 220.835 252.583 220.433 254.29C219.284 258.986 218.312 263.055 218.3 268.928C218.306 273.582 218.695 275.725 220.008 276.484Z" fill="#D87E2A"/>
<path d="M144.196 323.636L111.008 304.475L111.133 168.415C111.117 163.276 112.557 157.748 114.918 152.791L148.091 171.944C145.669 176.97 144.2 182.585 144.203 187.78L144.196 323.636Z" fill="#D87E2A"/>
<path d="M220.008 276.484L186.914 257.086L186.924 257.07C185.635 256.306 185.22 254.168 185.223 249.541C185.223 245.099 185.791 241.694 186.573 238.246C190.323 229.558 196.207 221.928 202.832 218.104C208.314 214.929 213.466 214.818 217.345 217.745C221.239 220.682 223.368 226.311 223.358 233.625C223.364 234.338 223.322 235.023 223.276 235.642L223.272 235.869L223.264 235.989C223.255 236.149 223.251 236.337 223.242 236.497C223.187 238.072 223.063 239.626 222.891 241.257C222.868 241.515 222.835 241.788 222.796 242.036L222.766 242.268C222.627 243.376 222.481 244.461 222.303 245.526C222.184 246.166 222.064 246.806 221.953 247.431C221.833 248.071 221.699 248.703 221.573 249.317C221.225 250.931 220.835 252.583 220.432 254.29C219.284 258.986 218.312 263.055 218.299 268.928C218.306 273.582 218.694 275.725 220.008 276.484Z" fill="#263238"/>
<path d="M144.196 323.636L111.008 304.475L111.133 168.415C111.117 163.276 112.557 157.748 114.918 152.791L148.091 171.944C145.669 176.97 144.2 182.585 144.203 187.78L144.196 323.636Z" fill="#263238"/>
<path d="M144.196 323.636L144.203 187.779C144.2 182.585 145.669 176.968 148.091 171.943L114.918 152.79C115.011 152.593 115.094 152.412 115.188 152.215C115.328 151.9 115.484 151.594 115.646 151.312C115.865 150.897 116.085 150.48 116.319 150.073C116.6 149.588 116.879 149.103 117.189 148.636L117.37 148.323C117.406 148.26 117.467 148.192 117.503 148.129C117.781 147.685 118.083 147.234 118.391 146.806C118.409 146.775 118.442 146.753 118.452 146.738C118.548 146.606 118.645 146.474 118.742 146.343C118.902 146.101 119.077 145.87 119.269 145.647C119.445 145.414 119.62 145.182 119.812 144.959C119.873 144.89 119.918 144.812 119.97 144.758C120.258 144.402 120.547 144.048 120.867 143.711C120.988 143.572 121.116 143.458 121.238 143.321C121.318 143.221 121.411 143.129 121.506 143.037C121.567 142.968 121.619 142.913 121.68 142.845C121.783 142.737 121.878 142.647 121.996 142.548C121.99 142.523 122.006 142.533 122.006 142.533C122.204 142.335 122.393 142.152 122.581 141.968C122.633 141.915 122.684 141.86 122.751 141.817C122.923 141.665 123.078 141.505 123.24 141.369C123.291 141.316 123.358 141.271 123.402 141.233C123.421 141.202 123.454 141.18 123.488 141.158C123.631 141.054 123.759 140.94 123.903 140.835C124.065 140.7 124.234 140.589 124.387 140.467C124.549 140.331 124.702 140.211 124.855 140.091C125.042 139.949 125.243 139.815 125.437 139.696C125.777 139.434 126.137 139.205 126.505 139L228.282 80.3962L261.486 99.5664L261.472 129.461C261.628 129.301 261.792 129.124 261.946 128.964C264.758 125.937 267.189 123.316 271.136 120.777L271.195 120.748L271.247 120.695L271.373 120.621C271.737 120.351 272.083 120.114 272.368 119.944C274.866 118.509 277.033 118.654 278.757 119.713L311.852 138.821C312.024 138.921 312.196 139.019 312.35 139.15C312.434 139.22 312.52 139.291 312.62 139.369C313.667 140.264 314.442 141.631 314.878 143.403C314.968 143.789 315.04 144.205 315.102 144.639C315.194 145.276 315.24 145.99 315.236 146.719C315.24 150.182 314.222 154.036 312.377 157.559C310.521 161.098 308.066 163.87 305.466 165.373C305.123 165.571 304.772 165.744 304.232 165.993L304.157 166.014L304.09 166.059C300.276 168.006 297.854 168.193 295.041 168.404C291.529 168.671 287.538 168.973 281.176 172.662C279.307 173.731 277.601 174.915 275.943 176.272L275.756 176.414C274.988 177.055 274.253 177.715 273.607 178.364L273.504 178.472L273.462 178.509C271.957 179.996 270.596 181.63 269.363 183.441L269.337 183.488C268.814 184.249 268.313 185.045 267.824 185.93L267.58 186.353L267.532 186.471C267.132 187.2 266.755 187.961 266.402 188.718L266.338 188.827C266.263 188.992 266.179 189.173 266.112 189.364C265.756 190.159 265.424 190.989 265.121 191.837C265.065 191.971 265.017 192.089 264.967 192.249C264.6 193.246 264.279 194.271 264.01 195.241C263.979 195.369 263.946 195.495 263.926 195.567C263.695 196.435 263.481 197.313 263.29 198.223C263.226 198.477 263.168 198.758 263.12 199.021L263.074 199.244C262.946 199.9 262.832 200.564 262.711 201.246C262.647 201.647 262.572 202.064 262.524 202.473C262.438 203.09 262.343 203.724 262.255 204.382L262.221 204.696C262.185 205.009 262.141 205.339 262.113 205.677C262.041 206.345 261.984 207.02 261.928 207.698L261.906 208.06C261.867 208.308 261.853 208.549 261.829 208.807L261.821 208.927L261.823 209.033L261.472 220.008L261.467 220.089L261.472 220.154L261.469 255.917L252.047 261.364L243.196 266.472L234.63 271.411C228.678 274.856 224.536 276.615 222.008 276.804C221.788 276.822 221.603 276.819 221.417 276.816C220.883 276.8 220.429 276.683 220.03 276.474L220.036 276.499C220.021 276.49 220.021 276.49 220.005 276.481C218.691 275.722 218.301 273.579 218.298 268.926C218.311 263.052 219.283 258.985 220.431 254.288C220.833 252.581 221.223 250.929 221.571 249.316C221.698 248.7 221.832 248.069 221.952 247.43C222.063 246.806 222.181 246.164 222.302 245.525C222.479 244.459 222.625 243.376 222.765 242.267L222.795 242.035C222.834 241.786 222.866 241.513 222.89 241.256C223.06 239.624 223.186 238.07 223.241 236.496C223.25 236.335 223.253 236.148 223.263 235.987L223.27 235.867L223.275 235.641C223.32 235.02 223.361 234.335 223.356 233.623C223.367 226.309 221.236 220.68 217.343 217.744C213.465 214.817 208.313 214.928 202.83 218.103C196.201 221.928 190.297 229.551 186.571 238.245C185.804 239.97 185.141 241.735 184.588 243.523C184.39 244.117 184.209 244.721 184.052 245.319C183.847 246.035 183.676 246.729 183.512 247.447C183.464 247.565 183.432 247.693 183.417 247.829C183.254 248.508 183.116 249.219 183.01 249.909C182.733 251.397 182.54 252.89 182.434 254.373C182.382 254.822 182.356 255.267 182.36 255.727C182.329 256.251 182.314 256.785 182.306 257.301C182.315 258.223 182.346 259.181 182.415 259.928C182.694 266.993 184.049 271.006 185.242 274.572C186.047 276.935 186.788 279.156 187.15 282.43L187.18 282.739L187.206 282.837L187.214 282.966C187.216 283.071 187.217 283.177 187.235 283.291C187.319 284.445 187.372 285.581 187.373 286.77C187.373 294.465 187.37 298.696 171.033 308.137L144.196 323.636Z" fill="#37474F"/>
<path d="M278.766 119.708L311.858 138.813C310.137 137.819 307.892 137.91 305.458 139.329C305.165 139.489 304.817 139.741 304.45 139.983L304.337 140.094L304.266 140.128L304.215 140.174C300.277 142.715 297.841 145.318 295.027 148.358C291.513 152.129 287.53 156.409 281.165 160.096C280.941 160.219 280.731 160.324 280.508 160.447C280.437 160.483 280.336 160.525 280.255 160.578L280.072 160.675C279.567 160.938 279.082 161.211 278.628 161.43C278.316 161.578 278.025 161.687 277.754 161.807L277.464 161.916L277.283 162.013C276.922 162.158 276.531 162.311 276.192 162.417C275.861 162.555 275.534 162.642 275.205 162.729L275.075 162.781C274.697 162.867 274.311 162.97 273.963 163.048C273.585 163.132 273.242 163.162 272.888 163.208C272.543 163.236 272.2 163.264 271.866 163.274C271.532 163.283 271.21 163.274 270.898 163.246C270.588 163.218 270.279 163.14 269.978 163.093C269.688 163.027 269.38 162.949 269.112 162.845C268.833 162.759 268.569 162.606 268.312 162.484L268.168 162.427C267.942 162.296 267.703 162.183 267.507 162.044C267.291 161.895 267.085 161.726 266.911 161.548L266.789 161.453L266.659 161.328C266.492 161.182 266.305 161.024 266.13 160.846C265.939 160.609 265.748 160.373 265.567 160.118L265.478 159.966C265.144 159.497 264.825 158.958 264.534 158.412L264.449 158.211C264.325 157.988 264.193 157.737 264.091 157.476C263.971 157.205 263.853 156.885 263.736 156.565L263.679 156.356L263.612 156.166C263.522 155.886 263.42 155.626 263.321 155.317C263.197 154.919 263.097 154.482 262.996 154.045C262.912 153.668 262.796 153.299 262.723 152.903C262.632 152.448 262.534 151.962 262.467 151.469C262.394 151.073 262.33 150.66 262.267 150.245C262.21 149.733 262.133 149.21 262.069 148.667C262.026 148.263 261.983 147.811 261.932 147.377C261.877 146.817 261.834 146.236 261.801 145.637C261.762 145.313 261.745 144.949 261.728 144.586L261.712 144.35L261.696 144.115C261.66 143.564 261.635 142.996 261.604 142.397L261.603 142.27L261.606 142.222L261.59 142.163L261.486 135.925L261.481 135.671L261.472 135.337L261.481 129.467C261.628 129.301 261.795 129.144 261.941 128.976C264.756 125.937 267.202 123.316 271.129 120.791L271.181 120.746L271.262 120.691L271.384 120.61C271.732 120.357 272.079 120.105 272.373 119.946C274.866 118.516 277.03 118.655 278.766 119.708Z" fill="black"/>
<path d="M148.107 171.952L114.902 152.782C114.994 152.585 115.079 152.404 115.186 152.217C115.327 151.902 115.483 151.596 115.645 151.314C115.863 150.899 116.083 150.482 116.317 150.075C116.598 149.59 116.878 149.104 117.188 148.638C117.288 148.466 117.386 148.293 117.502 148.131C117.779 147.686 118.082 147.235 118.389 146.808C118.408 146.777 118.441 146.755 118.45 146.739C118.547 146.608 118.644 146.475 118.74 146.344C118.901 146.103 119.076 145.872 119.268 145.649C119.489 145.338 119.725 145.037 119.968 144.761C120.257 144.405 120.546 144.051 120.865 143.714C120.987 143.575 121.115 143.461 121.237 143.324C121.316 143.224 121.41 143.132 121.505 143.04C121.669 142.864 121.825 142.703 121.995 142.552C121.989 142.527 122.004 142.536 122.004 142.536C122.203 142.338 122.391 142.155 122.58 141.971C122.632 141.918 122.683 141.863 122.75 141.82C122.958 141.606 123.171 141.416 123.401 141.236C123.419 141.205 123.452 141.183 123.487 141.161C123.63 141.057 123.758 140.943 123.902 140.838C124.201 140.573 124.532 140.325 124.852 140.094C125.039 139.952 125.24 139.818 125.434 139.699C125.774 139.437 126.134 139.208 126.502 139.004L228.263 80.3916L261.468 99.5618L216.735 125.389L159.572 158.409C159.137 158.659 158.708 158.932 158.295 159.214C157.906 159.491 157.518 159.767 157.151 160.076C156.94 160.225 156.744 160.383 156.564 160.55C156.182 160.851 155.814 161.201 155.444 161.55C154.999 161.96 154.575 162.403 154.152 162.848C153.243 163.845 152.369 164.926 151.555 166.082C151.236 166.524 150.92 166.967 150.632 167.427C149.709 168.852 148.849 170.378 148.107 171.952Z" fill="#455A64"/>
</g>
</svg>
