<svg width="512" height="407" viewBox="0 0 512 407" fill="none" xmlns="http://www.w3.org/2000/svg">
<path fill-rule="evenodd" clip-rule="evenodd" d="M302.879 407C274.043 407 250.598 383.581 250.598 354.776V326.869L345.602 231.968C368.883 208.712 375.826 175.256 366.35 145.88H459.72C488.556 145.88 512 169.299 512 198.104V354.776C512 383.581 488.556 407 459.72 407H302.879ZM395.162 262.592C391.485 258.919 386.499 256.856 381.299 256.856C376.1 256.856 371.113 258.919 367.436 262.592C363.76 266.265 361.694 271.246 361.694 276.44C361.694 281.634 363.76 286.615 367.436 290.288C371.113 293.961 376.1 296.024 381.299 296.024C386.499 296.024 391.485 293.961 395.162 290.288C398.839 286.615 400.904 281.634 400.904 276.44C400.904 271.246 398.839 266.265 395.162 262.592Z" fill="#D87E2A"/>
<path fill-rule="evenodd" clip-rule="evenodd" d="M213.757 17.1972C190.803 -5.73239 153.553 -5.73239 130.599 17.1972L17.2157 130.458C-5.73858 153.387 -5.73858 190.597 17.2157 213.527L130.599 326.787C153.553 349.717 190.803 349.717 213.757 326.787L327.14 213.527C350.094 190.597 350.094 153.387 327.14 130.458L213.757 17.1972ZM158.315 158.144C154.638 161.817 152.573 166.798 152.573 171.992C152.573 177.186 154.638 182.167 158.315 185.84C161.992 189.513 166.978 191.576 172.178 191.576C177.377 191.576 182.364 189.513 186.041 185.84C189.717 182.167 191.783 177.186 191.783 171.992C191.783 166.798 189.717 161.817 186.041 158.144C182.364 154.472 177.377 152.408 172.178 152.408C166.978 152.408 161.992 154.472 158.315 158.144ZM81.4802 158.144C77.8035 154.472 72.8168 152.408 67.6172 152.408C62.4176 152.408 57.431 154.472 53.7543 158.144C50.0777 161.817 48.0121 166.798 48.0121 171.992C48.0121 177.186 50.0777 182.167 53.7543 185.84C57.431 189.513 62.4176 191.576 67.6172 191.576C72.8168 191.576 77.8035 189.513 81.4802 185.84C85.1568 182.167 87.2224 177.186 87.2224 171.992C87.2224 166.798 85.1568 161.817 81.4802 158.144ZM158.315 290.288C161.992 293.961 166.978 296.024 172.178 296.024C177.377 296.024 182.364 293.961 186.041 290.288C189.717 286.615 191.783 281.634 191.783 276.44C191.783 271.246 189.717 266.265 186.041 262.592C182.364 258.919 177.377 256.856 172.178 256.856C166.978 256.856 161.992 258.919 158.315 262.592C154.638 266.265 152.573 271.246 152.573 276.44C152.573 281.634 154.638 286.615 158.315 290.288ZM290.601 158.144C286.925 154.472 281.938 152.408 276.739 152.408C271.539 152.408 266.552 154.472 262.876 158.144C259.199 161.817 257.133 166.798 257.133 171.992C257.133 177.186 259.199 182.167 262.876 185.84C266.552 189.513 271.539 191.576 276.739 191.576C281.938 191.576 286.925 189.513 290.601 185.84C294.278 182.167 296.344 177.186 296.344 171.992C296.344 166.798 294.278 161.817 290.601 158.144ZM158.315 81.3923C161.992 85.065 166.978 87.1283 172.178 87.1283C177.377 87.1283 182.364 85.065 186.041 81.3923C189.717 77.7196 191.783 72.7383 191.783 67.5443C191.783 62.3503 189.717 57.3691 186.041 53.6964C182.364 50.0237 177.377 47.9604 172.178 47.9604C166.978 47.9604 161.992 50.0237 158.315 53.6964C154.638 57.3691 152.573 62.3503 152.573 67.5443C152.573 72.7383 154.638 77.7196 158.315 81.3923Z" fill="#D87E2A"/>
</svg>
