<svg width="750" height="500" viewBox="0 0 750 500" fill="none" xmlns="http://www.w3.org/2000/svg">
<path d="M93.3529 358.748L394.366 430.457L385.12 469.04L84.1069 397.33L93.3529 358.748Z" fill="#D87E2A"/>
<path opacity="0.3" d="M85.4139 391.231L386.574 462.975L385.12 469.04L83.9609 397.296L85.4139 391.231Z" fill="white"/>
<g opacity="0.1">
<path d="M381.381 459.962C291.073 438.914 183.532 413.499 93.3608 391.891C183.669 412.938 291.21 438.355 381.381 459.962Z" fill="black"/>
<path d="M383.218 452.204C292.91 431.156 185.369 405.741 95.1978 384.133C185.506 405.18 293.046 430.598 383.218 452.204Z" fill="black"/>
<path d="M385.055 444.447C294.747 423.399 187.206 397.985 97.0347 376.376C187.343 397.423 294.883 422.84 385.055 444.447Z" fill="black"/>
<path d="M386.891 436.689C296.583 415.641 189.042 390.226 98.8706 368.618C189.179 389.665 296.72 415.082 386.891 436.689Z" fill="black"/>
</g>
<path d="M79.2221 398.398L89.2549 356.025L78.1664 353.399L68.1337 395.773L79.2221 398.398Z" fill="#A6A6A6"/>
<path d="M91.4799 401.303L101.513 358.929L90.4233 356.304L80.3905 398.677L91.4799 401.303Z" fill="#A6A6A6"/>
<path d="M385.12 469.04L416.745 461.001L427.184 458.382L419.048 451.274L394.385 429.915L387.764 432.502C387.764 432.502 392.462 437.615 392.528 437.721L385.909 440.335C385.909 440.335 390.607 445.448 390.674 445.555L384.075 448.084C384.075 448.084 388.753 453.283 388.818 453.389L382.219 455.918C382.219 455.918 386.897 461.117 386.963 461.224L380.364 463.752C380.364 463.752 385.055 468.933 385.12 469.04Z" fill="#D87E2A"/>
<path opacity="0.7" d="M385.12 469.04L416.745 461.001L427.184 458.382L419.048 451.274L394.385 429.915L387.764 432.502C387.764 432.502 392.462 437.615 392.528 437.721L385.909 440.335C385.909 440.335 390.607 445.448 390.674 445.555L384.075 448.084C384.075 448.084 388.753 453.283 388.818 453.389L382.219 455.918C382.219 455.918 386.897 461.117 386.963 461.224L380.364 463.752C380.364 463.752 385.055 468.933 385.12 469.04Z" fill="white"/>
<path d="M416.746 461.001L427.184 458.382L419.048 451.274L416.746 461.001Z" fill="#263238"/>
<path d="M60.4162 350.822L77.8992 355.012L68.5282 394.118L51.0452 389.928C48.3222 389.275 46.6432 386.539 47.2962 383.815L54.3042 354.571C54.9562 351.848 57.6922 350.169 60.4162 350.822Z" fill="#FF9ABB"/>
<path opacity="0.3" d="M47.9974 380.918L49.5364 374.496C48.5004 378.819 51.1614 383.178 55.4844 384.214L70.0574 387.706L68.5224 394.113L53.9494 390.621C49.6264 389.584 46.9614 385.24 47.9974 380.918Z" fill="white"/>
<path d="M529.83 226.835L479.88 226.875C474.69 226.885 470.38 222.675 470.38 217.375C470.38 214.415 471.81 211.725 474.04 209.855C478.53 206.175 481.38 200.605 481.37 194.425C481.36 183.475 472.4 174.515 461.46 174.525C450.43 174.535 441.56 183.505 441.57 194.455C441.57 200.635 444.44 206.205 448.85 209.875C451.18 211.745 452.52 214.435 452.53 217.395C452.53 222.695 448.32 226.905 443.03 226.905L393.18 226.945L393.14 177.005C393.14 171.805 388.92 167.495 383.63 167.505C380.66 167.505 377.97 168.935 376.1 171.195C372.43 175.675 366.96 178.555 360.68 178.555C349.74 178.565 340.77 169.605 340.76 158.655C340.75 147.635 349.71 138.755 360.65 138.745C366.93 138.735 372.41 141.605 376.08 145.985C377.96 148.325 380.65 149.665 383.61 149.665C388.91 149.655 393.11 145.445 393.11 140.145L393.07 90.3048L529.72 90.1948V210.535H529.82L529.83 226.835Z" fill="#D87E2A"/>
<path d="M477.46 299.971C477.46 311 486.337 319.876 497.365 319.876C503.552 319.876 509.111 317.007 512.697 312.613C514.58 310.282 517.27 308.937 520.229 308.937C525.519 308.937 529.823 313.151 529.823 318.441V368.294H393.176V318.441C393.176 313.151 397.39 308.937 402.68 308.937C405.639 308.937 408.329 310.282 410.212 312.613C413.888 317.006 419.447 319.876 425.634 319.876C436.573 319.876 445.539 310.999 445.539 299.971C445.539 289.032 436.573 280.066 425.634 280.066C419.447 280.066 413.888 282.935 410.212 287.418C408.329 289.66 405.639 291.094 402.68 291.094C397.39 291.094 393.176 286.79 393.176 281.59V231.646H443.029C448.319 231.646 452.533 227.432 452.533 222.142C452.533 219.183 451.188 216.493 448.857 214.61C444.464 210.934 441.594 205.465 441.594 199.188C441.594 188.249 450.471 179.283 461.499 179.283C472.438 179.283 481.404 188.249 481.404 199.188C481.404 205.465 478.535 210.934 474.052 214.61C471.81 216.493 470.376 219.183 470.376 222.142C470.376 227.432 474.68 231.646 479.88 231.646H529.823V281.59C529.823 286.79 525.519 291.094 520.229 291.094C517.27 291.094 514.58 289.659 512.697 287.418C509.111 282.935 503.551 280.066 497.365 280.066C486.337 280.066 477.46 289.032 477.46 299.971Z" fill="#455A64"/>
<path d="M421.951 299.871C420.349 310.779 410.187 318.253 399.365 316.664C393.155 315.752 388.151 312.112 385.155 307.243C383.641 304.659 381.173 302.937 378.244 302.507C373.003 301.737 368.227 305.291 367.457 310.532L360.215 359.852L225.018 340L232.274 290.585C233.03 285.44 229.49 280.568 224.249 279.798C221.32 279.368 218.449 280.394 216.268 282.348C211.985 286.246 206.146 288.294 199.946 287.384C189.113 285.793 181.542 275.617 183.132 264.795C184.734 253.887 194.897 246.402 205.73 247.993C211.93 248.903 216.934 252.544 219.928 257.423C221.444 259.996 223.911 261.719 226.841 262.149C232.082 262.919 236.858 259.365 237.626 254.135L244.869 204.805L294.285 212.061C299.419 212.815 303.069 217.606 302.299 222.846C301.869 225.775 300.061 228.23 297.573 229.759C292.598 232.739 288.966 237.832 288.069 243.946C286.478 254.779 294.038 264.954 304.861 266.543C315.779 268.146 325.86 260.562 327.45 249.728C328.348 243.614 326.323 237.69 322.499 233.418C320.47 231.227 319.53 228.368 319.96 225.439C320.73 220.198 325.506 216.645 330.747 217.414L380.067 224.656L372.811 274.071C372.056 279.216 375.595 284.088 380.836 284.858C383.765 285.288 386.636 284.263 388.817 282.308C393.1 278.41 398.939 276.362 405.15 277.274C415.971 278.861 423.542 289.037 421.951 299.871Z" fill="#D87E2A"/>
<path d="M192.944 140.383C182.268 143.148 175.899 153.966 178.664 164.643C180.215 170.632 184.386 175.295 189.538 177.665C192.267 178.903 194.243 181.17 194.985 184.035C196.311 189.156 193.31 194.379 188.189 195.705L139.928 208.202L105.674 75.9169L153.935 63.4199C159.056 62.0939 164.192 65.1169 165.518 70.2379C166.26 73.1019 165.632 76.0439 163.847 78.4509C160.515 83.1109 159.131 89.2119 160.682 95.2009C163.424 105.791 174.265 112.246 184.942 109.481C195.532 106.739 201.964 95.8109 199.222 85.2209C197.671 79.2319 193.5 74.5689 188.238 72.1339C185.596 70.8729 183.533 68.6289 182.791 65.7639C181.465 60.6429 184.575 55.4839 189.608 54.1809L237.957 41.6609L250.454 89.9219C251.78 95.0429 256.916 98.0669 262.037 96.7399C264.901 95.9979 267.168 94.0219 268.407 91.2929C270.864 86.1179 275.439 81.9699 281.516 80.3959C292.106 77.6539 303.011 83.9999 305.776 94.6759C308.518 105.266 302.086 116.194 291.496 118.936C285.419 120.51 279.406 119.103 274.723 115.684C272.338 113.986 269.375 113.271 266.51 114.013C261.389 115.339 258.388 120.562 259.691 125.596L272.211 173.944L223.862 186.464C218.828 187.767 213.583 184.68 212.257 179.559C211.515 176.694 212.23 173.731 213.928 171.346C217.369 166.75 218.753 160.649 217.202 154.66C214.439 143.987 203.534 137.641 192.944 140.383Z" fill="#37474F"/>
<path d="M675.643 126.325C685.893 130.386 690.837 141.991 686.808 152.161C684.496 157.996 679.805 162.032 674.379 163.832C671.517 164.713 669.274 166.72 668.184 169.472C666.233 174.397 668.596 179.861 673.521 181.812L719.864 200.173L669.532 327.212L623.098 308.815C618.263 306.9 612.709 309.227 610.758 314.151C609.667 316.904 610.007 319.933 611.409 322.504C614.221 327.567 614.875 333.72 612.566 339.546C608.533 349.726 596.892 354.76 586.722 350.731C576.472 346.67 571.518 335.061 575.551 324.881C577.859 319.055 582.55 315.02 587.986 313.224C590.838 312.339 593.081 310.332 594.171 307.58C596.122 302.655 593.759 297.191 588.844 295.244L542.49 276.879L560.887 230.445C562.798 225.62 568.298 223.167 573.223 225.118C575.976 226.208 577.95 228.531 578.867 231.303C580.626 236.829 584.75 241.532 590.496 243.808C600.676 247.841 612.313 242.817 616.342 232.647C620.407 222.387 615.337 210.836 605.157 206.803C599.412 204.527 593.182 205.139 588.147 207.88C585.549 209.352 582.551 209.612 579.798 208.521C574.873 206.57 572.51 201.106 574.461 196.181L592.822 149.837L639.256 168.234C644.091 170.149 649.645 167.822 651.596 162.897C652.687 160.144 652.347 157.115 650.945 154.544C648.133 149.481 647.479 143.327 649.791 137.492C653.822 127.326 665.463 122.292 675.643 126.325Z" fill="#D87E2A"/>
</svg>
